G04 Layer_Physical_Order=2*
G04 Layer_Color=16711680*
%FSLAX25Y25*%
%MOIN*%
G70*
G01*
G75*
%ADD10R,0.19685X0.00787*%
%ADD11C,0.00800*%
%ADD12C,0.02000*%
%ADD13C,0.08661*%
%ADD14O,0.15748X0.11024*%
%ADD15O,0.18898X0.11024*%
%ADD16C,0.02500*%
%ADD17R,0.12795X0.05906*%
%ADD18R,0.19685X0.01575*%
%ADD19C,0.01000*%
%ADD20C,0.02500*%
%ADD21C,0.01500*%
G36*
X61029Y62500D02*
X114586D01*
X114911Y62218D01*
X115645Y61000D01*
X118000D01*
Y60000D01*
X115805D01*
X115881Y59622D01*
X116378Y58878D01*
X117122Y58381D01*
X117258Y58155D01*
X116296Y56455D01*
X101327D01*
X100978Y56978D01*
X100300Y57431D01*
X99500Y57590D01*
X98700Y57431D01*
X98022Y56978D01*
X97569Y56300D01*
X97410Y55500D01*
X97473Y55180D01*
X96702Y53840D01*
X96339Y53480D01*
X70500D01*
X69895Y53360D01*
X69383Y53017D01*
X67383Y51017D01*
X67040Y50505D01*
X66920Y49900D01*
Y41238D01*
X65237Y40368D01*
X64437Y40527D01*
X63637Y40368D01*
X62959Y39915D01*
X62857Y39762D01*
X58698D01*
Y43190D01*
X44302D01*
Y35684D01*
X44302D01*
Y35316D01*
X44302D01*
Y27810D01*
X58698D01*
Y29237D01*
X61150D01*
X61174Y22655D01*
X60821Y22301D01*
X58698D01*
Y25473D01*
X44302D01*
Y17968D01*
X58698D01*
Y19140D01*
X65421D01*
X66025Y19260D01*
X66538Y19603D01*
X69617Y22682D01*
X69960Y23195D01*
X70080Y23800D01*
Y49245D01*
X71155Y50320D01*
X101706D01*
X102000Y50099D01*
X102934Y48620D01*
X102910Y48500D01*
X103069Y47700D01*
X103522Y47022D01*
X104200Y46569D01*
X105000Y46410D01*
X105300Y46470D01*
X114635Y37135D01*
X115032Y36870D01*
X115500Y36777D01*
X118000D01*
X118468Y36870D01*
X118865Y37135D01*
X120066Y35932D01*
X119607Y35338D01*
X118500Y34230D01*
Y32000D01*
X118000D01*
Y31500D01*
X115645D01*
X114911Y30282D01*
X114586Y30000D01*
X73000D01*
Y14500D01*
Y13000D01*
X61209D01*
X61249Y2104D01*
X60896Y1750D01*
X59750D01*
X22163Y1917D01*
X22039Y2418D01*
X22930Y2894D01*
X23922Y3708D01*
X24736Y4699D01*
X25341Y5831D01*
X25713Y7058D01*
X25789Y7835D01*
X15358D01*
X4927D01*
X5004Y7058D01*
X5376Y5831D01*
X5981Y4699D01*
X6794Y3708D01*
X7786Y2894D01*
X8565Y2478D01*
X8439Y1978D01*
X3500Y2000D01*
Y70500D01*
X61000D01*
X61029Y62500D01*
D02*
G37*
%LPC*%
G36*
X19295Y69209D02*
X15858D01*
Y63165D01*
X25789D01*
X25713Y63942D01*
X25341Y65169D01*
X24736Y66301D01*
X23922Y67292D01*
X22930Y68106D01*
X21799Y68711D01*
X20572Y69083D01*
X19295Y69209D01*
D02*
G37*
G36*
X14858D02*
X11421D01*
X10145Y69083D01*
X8917Y68711D01*
X7786Y68106D01*
X6794Y67292D01*
X5981Y66301D01*
X5376Y65169D01*
X5004Y63942D01*
X4927Y63165D01*
X14858D01*
Y69209D01*
D02*
G37*
G36*
X44925Y67437D02*
X43063D01*
Y61394D01*
X51419D01*
X51343Y62170D01*
X50970Y63398D01*
X50366Y64529D01*
X49552Y65521D01*
X48561Y66334D01*
X47429Y66939D01*
X46202Y67311D01*
X44925Y67437D01*
D02*
G37*
G36*
X42063D02*
X40201D01*
X38924Y67311D01*
X37697Y66939D01*
X36566Y66334D01*
X35574Y65521D01*
X34760Y64529D01*
X34155Y63398D01*
X33783Y62170D01*
X33707Y61394D01*
X42063D01*
Y67437D01*
D02*
G37*
G36*
X25789Y62165D02*
X15858D01*
Y56122D01*
X19295D01*
X20572Y56248D01*
X21799Y56620D01*
X22930Y57225D01*
X23922Y58039D01*
X24736Y59030D01*
X25341Y60161D01*
X25713Y61389D01*
X25789Y62165D01*
D02*
G37*
G36*
X14858D02*
X4927D01*
X5004Y61389D01*
X5376Y60161D01*
X5981Y59030D01*
X6794Y58039D01*
X7786Y57225D01*
X8917Y56620D01*
X10145Y56248D01*
X11421Y56122D01*
X14858D01*
Y62165D01*
D02*
G37*
G36*
X58898Y53232D02*
X52000D01*
Y49779D01*
X58898D01*
Y53232D01*
D02*
G37*
G36*
X51000D02*
X44102D01*
Y49779D01*
X51000D01*
Y53232D01*
D02*
G37*
G36*
X58898Y48779D02*
X52000D01*
Y45327D01*
X58898D01*
Y48779D01*
D02*
G37*
G36*
X51000D02*
X44102D01*
Y45327D01*
X51000D01*
Y48779D01*
D02*
G37*
G36*
X117500Y34195D02*
X117122Y34119D01*
X116378Y33622D01*
X115881Y32878D01*
X115805Y32500D01*
X117500D01*
Y34195D01*
D02*
G37*
G36*
X99700Y43890D02*
X98900Y43731D01*
X98222Y43278D01*
X97769Y42600D01*
X97610Y41800D01*
X97769Y41000D01*
X98222Y40322D01*
X98900Y39869D01*
X99700Y39710D01*
X100500Y39869D01*
X100643Y39965D01*
X102040D01*
X108835Y33169D01*
X108869Y33000D01*
X109322Y32322D01*
X110000Y31869D01*
X110800Y31710D01*
X111600Y31869D01*
X112278Y32322D01*
X112731Y33000D01*
X112890Y33800D01*
X112731Y34600D01*
X112278Y35278D01*
X111600Y35731D01*
X111431Y35765D01*
X104098Y43098D01*
X103502Y43496D01*
X102800Y43635D01*
X100643D01*
X100500Y43731D01*
X99700Y43890D01*
D02*
G37*
G36*
X42563Y60894D02*
D01*
Y60394D01*
X33707D01*
X33783Y59617D01*
X34155Y58390D01*
X34760Y57258D01*
X35574Y56267D01*
X36566Y55453D01*
X37697Y54848D01*
X37805Y54816D01*
X37731Y54316D01*
X10000D01*
X9688Y54254D01*
X9423Y54077D01*
X9246Y53812D01*
X9184Y53500D01*
Y53000D01*
Y18500D01*
X9246Y18188D01*
X9423Y17923D01*
X9688Y17746D01*
X10000Y17684D01*
X42500D01*
X42812Y17746D01*
X43077Y17923D01*
X43254Y18188D01*
X43316Y18500D01*
Y53500D01*
X43254Y53812D01*
X43228Y53850D01*
X43495Y54350D01*
X44925D01*
X46202Y54476D01*
X47429Y54848D01*
X48561Y55453D01*
X49552Y56267D01*
X50366Y57258D01*
X50970Y58390D01*
X51343Y59617D01*
X51419Y60394D01*
X42563D01*
Y60894D01*
D02*
G37*
G36*
X44925Y16650D02*
X43063D01*
Y10606D01*
X51419D01*
X51343Y11383D01*
X50970Y12610D01*
X50366Y13742D01*
X49552Y14733D01*
X48561Y15547D01*
X47429Y16151D01*
X46202Y16524D01*
X44925Y16650D01*
D02*
G37*
G36*
X42063D02*
X40201D01*
X38924Y16524D01*
X37697Y16151D01*
X36566Y15547D01*
X35574Y14733D01*
X34760Y13742D01*
X34155Y12610D01*
X33783Y11383D01*
X33707Y10606D01*
X42063D01*
Y16650D01*
D02*
G37*
G36*
X19295Y14878D02*
X15858D01*
Y8835D01*
X25789D01*
X25713Y9611D01*
X25341Y10839D01*
X24736Y11970D01*
X23922Y12961D01*
X22930Y13775D01*
X21799Y14380D01*
X20572Y14752D01*
X19295Y14878D01*
D02*
G37*
G36*
X14858D02*
X11421D01*
X10145Y14752D01*
X8917Y14380D01*
X7786Y13775D01*
X6794Y12961D01*
X5981Y11970D01*
X5376Y10839D01*
X5004Y9611D01*
X4927Y8835D01*
X14858D01*
Y14878D01*
D02*
G37*
G36*
X51419Y9606D02*
X43063D01*
Y3563D01*
X44925D01*
X46202Y3689D01*
X47429Y4061D01*
X48561Y4666D01*
X49552Y5480D01*
X50366Y6471D01*
X50970Y7602D01*
X51343Y8830D01*
X51419Y9606D01*
D02*
G37*
G36*
X42063D02*
X33707D01*
X33783Y8830D01*
X34155Y7602D01*
X34760Y6471D01*
X35574Y5480D01*
X36566Y4666D01*
X37697Y4061D01*
X38924Y3689D01*
X40201Y3563D01*
X42063D01*
Y9606D01*
D02*
G37*
%LPD*%
D10*
X133600Y35546D02*
D03*
Y37515D02*
D03*
Y39483D02*
D03*
Y41452D02*
D03*
Y43420D02*
D03*
Y49326D02*
D03*
Y51294D02*
D03*
Y53263D02*
D03*
Y55231D02*
D03*
Y57200D02*
D03*
D11*
X117652Y41452D02*
X134000D01*
X133953Y35500D02*
X134000Y35546D01*
X121500Y35500D02*
X133953D01*
X118000Y32000D02*
X121500Y35500D01*
X121300Y57200D02*
X134000D01*
X118000Y60500D02*
X121300Y57200D01*
X99500Y55500D02*
X99769Y55231D01*
X121768Y53263D02*
X133600D01*
X119800Y55231D02*
X121768Y53263D01*
X133600D02*
X134000D01*
X119800Y55231D02*
X133600D01*
X134000D01*
X99769D02*
X119800D01*
X119517Y39483D02*
X133600D01*
X118000Y38000D02*
X119500Y39500D01*
X121485Y37515D02*
X133600D01*
X119500Y39500D02*
X119517Y39483D01*
X121485Y37515D01*
X111005Y51294D02*
X134000D01*
X110700Y51600D02*
X111005Y51294D01*
X105000Y48500D02*
X115500Y38000D01*
X118000D01*
D12*
X41563Y10106D02*
X44957Y13500D01*
X41563Y60894D02*
X41957Y60500D01*
X99700Y41800D02*
X102800D01*
X110800Y33800D01*
D13*
X14500Y88900D02*
D03*
Y78900D02*
D03*
D14*
X42563Y60894D02*
D03*
Y10106D02*
D03*
D15*
X15358Y8335D02*
D03*
Y62665D02*
D03*
D16*
X64437Y30563D02*
D03*
Y38437D02*
D03*
X116948Y41452D02*
D03*
X105000Y48500D02*
D03*
X118000Y32000D02*
D03*
Y60500D02*
D03*
X99500Y55500D02*
D03*
X110700Y51600D02*
D03*
X99700Y41800D02*
D03*
X110800Y33800D02*
D03*
D17*
X51500Y21721D02*
D03*
Y49279D02*
D03*
Y39437D02*
D03*
Y31563D02*
D03*
D18*
X133600Y59562D02*
D03*
Y33183D02*
D03*
D19*
X50600Y30563D02*
X64437D01*
X50600Y38437D02*
X64437D01*
D20*
X39891Y7335D02*
X41663Y9106D01*
D21*
X50600Y20720D02*
X65421D01*
X68500Y23800D01*
Y49900D01*
X70500Y51900D01*
X110400D01*
X110700Y47700D02*
X116948Y41452D01*
X110700Y47700D02*
Y51600D01*
M02*
