G04 Layer_Color=16711935*
%FSLAX25Y25*%
%MOIN*%
G70*
G01*
G75*
%ADD23R,0.20685X0.01787*%
%ADD24C,0.09500*%
%ADD25O,0.16748X0.12024*%
%ADD26O,0.19898X0.12024*%
%ADD27C,0.01000*%
%ADD28C,0.04000*%
%ADD29R,0.13795X0.06906*%
%ADD30R,0.20685X0.02575*%
G36*
X143800Y48350D02*
X123000D01*
Y60850D01*
X143800D01*
Y48350D01*
D02*
G37*
G36*
X143700Y31800D02*
X122900D01*
Y44400D01*
X143700D01*
Y31800D01*
D02*
G37*
D23*
X133300Y35546D02*
D03*
Y37515D02*
D03*
Y39483D02*
D03*
Y41452D02*
D03*
Y43420D02*
D03*
Y49326D02*
D03*
Y51294D02*
D03*
Y53263D02*
D03*
Y55231D02*
D03*
Y57200D02*
D03*
D24*
X14600Y79900D02*
D03*
Y89900D02*
D03*
D25*
X42563Y60894D02*
D03*
Y10106D02*
D03*
D26*
X15358Y8335D02*
D03*
Y62665D02*
D03*
D27*
X84600Y44600D02*
D03*
X48600Y86100D02*
D03*
D28*
X110800Y33800D02*
D03*
X99700Y41800D02*
D03*
X110700Y51600D02*
D03*
X99500Y55500D02*
D03*
X118000Y60500D02*
D03*
Y32000D02*
D03*
X105000Y48500D02*
D03*
X116948Y41452D02*
D03*
X64437Y38437D02*
D03*
Y30563D02*
D03*
D29*
X51500Y21721D02*
D03*
Y31563D02*
D03*
Y39437D02*
D03*
Y49279D02*
D03*
D30*
X133300Y59562D02*
D03*
Y33183D02*
D03*
M02*
