G04 Layer_Color=2752767*
%FSLAX25Y25*%
%MOIN*%
G70*
G01*
G75*
%ADD31C,0.00200*%
%ADD32C,0.00267*%
D31*
X13800Y79100D02*
Y80700D01*
X15400D01*
Y79100D01*
X13800D01*
Y89100D02*
Y90700D01*
X15400D01*
Y89100D01*
X13800D01*
X15358Y7535D02*
X14558Y9135D01*
X16158D01*
X15358Y7535D01*
Y61865D02*
X14558Y63465D01*
X16158D01*
X15358Y61865D01*
X84600Y43800D02*
X85000Y44200D01*
X85400D01*
X85000Y44600D01*
X85400Y45000D01*
X85000D01*
X84600Y45400D01*
X84200Y45000D01*
X83800D01*
X84200Y44600D01*
X83800Y44200D01*
X84200D01*
X84600Y43800D01*
X48600Y85300D02*
X49000Y85700D01*
X49400D01*
X49000Y86100D01*
X49400Y86500D01*
X49000D01*
X48600Y86900D01*
X48200Y86500D01*
X47800D01*
X48200Y86100D01*
X47800Y85700D01*
X48200D01*
X48600Y85300D01*
X110000Y33000D02*
X110400Y33800D01*
X110000Y34600D01*
X110800Y34200D01*
X111600Y34600D01*
X111200Y33800D01*
X111600Y33000D01*
X110800Y33400D01*
X110000Y33000D01*
X98900Y41000D02*
X99300Y41800D01*
X98900Y42600D01*
X99700Y42200D01*
X100500Y42600D01*
X100100Y41800D01*
X100500Y41000D01*
X99700Y41400D01*
X98900Y41000D01*
X109900Y50800D02*
X110300Y51600D01*
X109900Y52400D01*
X110700Y52000D01*
X111500Y52400D01*
X111100Y51600D01*
X111500Y50800D01*
X110700Y51200D01*
X109900Y50800D01*
X98700Y54700D02*
X99100Y55500D01*
X98700Y56300D01*
X99500Y55900D01*
X100300Y56300D01*
X99900Y55500D01*
X100300Y54700D01*
X99500Y55100D01*
X98700Y54700D01*
X117200Y59700D02*
X117600Y60500D01*
X117200Y61300D01*
X118000Y60900D01*
X118800Y61300D01*
X118400Y60500D01*
X118800Y59700D01*
X118000Y60100D01*
X117200Y59700D01*
Y31200D02*
X117600Y32000D01*
X117200Y32800D01*
X118000Y32400D01*
X118800Y32800D01*
X118400Y32000D01*
X118800Y31200D01*
X118000Y31600D01*
X117200Y31200D01*
X104200Y47700D02*
X104600Y48500D01*
X104200Y49300D01*
X105000Y48900D01*
X105800Y49300D01*
X105400Y48500D01*
X105800Y47700D01*
X105000Y48100D01*
X104200Y47700D01*
X116148Y40652D02*
X116548Y41452D01*
X116148Y42252D01*
X116948Y41852D01*
X117748Y42252D01*
X117348Y41452D01*
X117748Y40652D01*
X116948Y41052D01*
X116148Y40652D01*
X63637Y37637D02*
X64037Y38437D01*
X63637Y39237D01*
X64437Y38837D01*
X65237Y39237D01*
X64837Y38437D01*
X65237Y37637D01*
X64437Y38037D01*
X63637Y37637D01*
Y29763D02*
X64037Y30563D01*
X63637Y31363D01*
X64437Y30963D01*
X65237Y31363D01*
X64837Y30563D01*
X65237Y29763D01*
X64437Y30163D01*
X63637Y29763D01*
D32*
X43363Y60894D02*
G03*
X43363Y60894I-800J0D01*
G01*
Y10106D02*
G03*
X43363Y10106I-800J0D01*
G01*
M02*
