G04 Layer_Color=128*
%FSLAX25Y25*%
%MOIN*%
G70*
G01*
G75*
%ADD31C,0.00200*%
D31*
X12041Y79900D02*
X17159D01*
X14600Y77341D02*
Y82459D01*
X12041Y89900D02*
X17159D01*
X14600Y87341D02*
Y92459D01*
X41185Y60894D02*
X43941D01*
X42563Y59516D02*
Y62272D01*
X41185Y10106D02*
X43941D01*
X42563Y8728D02*
Y11484D01*
X13980Y8335D02*
X16736D01*
X15358Y6957D02*
Y9713D01*
X13980Y62665D02*
X16736D01*
X15358Y61287D02*
Y64043D01*
X78694Y44600D02*
X90505D01*
X84600Y38695D02*
Y50506D01*
X42695Y86100D02*
X54505D01*
X48600Y80194D02*
Y92005D01*
X110050Y33800D02*
X111550D01*
X110800Y33050D02*
Y34550D01*
X98950Y41800D02*
X100450D01*
X99700Y41050D02*
Y42550D01*
X109950Y51600D02*
X111450D01*
X110700Y50850D02*
Y52350D01*
X98750Y55500D02*
X100250D01*
X99500Y54750D02*
Y56250D01*
X117250Y60500D02*
X118750D01*
X118000Y59750D02*
Y61250D01*
X117250Y32000D02*
X118750D01*
X118000Y31250D02*
Y32750D01*
X104250Y48500D02*
X105750D01*
X105000Y47750D02*
Y49250D01*
X116198Y41452D02*
X117698D01*
X116948Y40702D02*
Y42202D01*
X63687Y38437D02*
X65187D01*
X64437Y37687D02*
Y39187D01*
X63687Y30563D02*
X65187D01*
X64437Y29813D02*
Y31313D01*
M02*
