G04 Layer_Physical_Order=1*
G04 Layer_Color=255*
%FSLAX24Y24*%
%MOIN*%
G70*
G01*
G75*
%ADD10R,0.0354X0.0106*%
%ADD11R,0.0315X0.0106*%
%ADD12C,0.0100*%
%ADD13C,0.0080*%
%ADD14C,0.0200*%
%ADD15R,0.1969X0.0079*%
%ADD16O,0.0433X0.0600*%
%ADD17O,0.0906X0.0472*%
%ADD18O,0.1024X0.0512*%
%ADD19C,0.0850*%
%ADD20O,0.0709X0.0453*%
%ADD21O,0.0787X0.0571*%
%ADD22C,0.0220*%
%ADD23C,0.0170*%
%ADD24C,0.0150*%
%ADD25O,0.1575X0.1102*%
%ADD26O,0.1890X0.1102*%
%ADD27C,0.0300*%
G36*
X25973Y8542D02*
X26005Y8548D01*
X26074Y8594D01*
X26121Y8664D01*
X26220Y8649D01*
Y8451D01*
X26176Y8386D01*
X26158Y8296D01*
X26176Y8206D01*
X26227Y8130D01*
X26303Y8079D01*
X26393Y8061D01*
X26482Y8079D01*
X26493Y8086D01*
X26517Y8079D01*
X26546Y7966D01*
X25465Y6886D01*
X24031D01*
X23992Y6978D01*
X25355Y8341D01*
X25398Y8370D01*
X25449Y8446D01*
X25467Y8536D01*
X25461Y8569D01*
X25612Y8720D01*
X25720Y8687D01*
X25725Y8664D01*
X25771Y8594D01*
X25841Y8548D01*
X25873Y8542D01*
Y8746D01*
X25973D01*
Y8542D01*
D02*
G37*
G36*
X27277Y7910D02*
X27330Y7875D01*
X27393Y7863D01*
X27498D01*
X27536Y7770D01*
X27367Y7601D01*
X27332Y7548D01*
X27320Y7486D01*
Y7320D01*
X27285Y7268D01*
X27279Y7236D01*
X27483D01*
Y7136D01*
X27279D01*
X27285Y7104D01*
X27331Y7034D01*
X27401Y6988D01*
X27412Y6986D01*
X27402Y6886D01*
X26231D01*
X26192Y6978D01*
X27191Y7977D01*
X27209Y7979D01*
X27277Y7910D01*
D02*
G37*
G36*
X27733Y10866D02*
X27883D01*
Y10466D01*
X27783Y10422D01*
X27765Y10434D01*
X27733Y10440D01*
Y10236D01*
X27683D01*
Y10186D01*
X27479D01*
X27485Y10154D01*
X27531Y10084D01*
X27566Y10062D01*
X27535Y9962D01*
X26435D01*
X26435Y9962D01*
X26369Y9948D01*
X26312Y9911D01*
X25157Y8755D01*
X25143Y8752D01*
X25067Y8702D01*
X25038Y8658D01*
X23265Y6886D01*
X20633D01*
Y13416D01*
X20786D01*
X20790Y13411D01*
Y13411D01*
X21291D01*
X21792D01*
Y13411D01*
X21796Y13416D01*
X22204D01*
X22260Y13352D01*
X22787D01*
X23315D01*
X23370Y13416D01*
X27733D01*
Y10866D01*
D02*
G37*
%LPC*%
G36*
X25287Y7436D02*
X25133D01*
Y7282D01*
X25165Y7288D01*
X25234Y7334D01*
X25280Y7404D01*
X25287Y7436D01*
D02*
G37*
G36*
X25033D02*
X24879D01*
X24885Y7404D01*
X24931Y7334D01*
X25001Y7288D01*
X25033Y7282D01*
Y7436D01*
D02*
G37*
G36*
X25133Y7690D02*
Y7536D01*
X25287D01*
X25280Y7568D01*
X25234Y7637D01*
X25165Y7684D01*
X25133Y7690D01*
D02*
G37*
G36*
X25033D02*
X25001Y7684D01*
X24931Y7637D01*
X24885Y7568D01*
X24879Y7536D01*
X25033D01*
Y7690D01*
D02*
G37*
G36*
X22737Y10319D02*
X22297D01*
X22304Y10269D01*
X22342Y10175D01*
X22404Y10094D01*
X22485Y10033D01*
X22579Y9994D01*
X22679Y9981D01*
X22737D01*
Y10319D01*
D02*
G37*
G36*
X23278D02*
X22837D01*
Y9981D01*
X22896D01*
X22996Y9994D01*
X23090Y10033D01*
X23171Y10094D01*
X23232Y10175D01*
X23271Y10269D01*
X23278Y10319D01*
D02*
G37*
G36*
X21742Y10260D02*
X21341D01*
Y9981D01*
X21419D01*
X21504Y9992D01*
X21584Y10025D01*
X21652Y10077D01*
X21704Y10146D01*
X21737Y10225D01*
X21742Y10260D01*
D02*
G37*
G36*
X21241D02*
X20841D01*
X20845Y10225D01*
X20878Y10146D01*
X20931Y10077D01*
X20999Y10025D01*
X21078Y9992D01*
X21163Y9981D01*
X21241D01*
Y10260D01*
D02*
G37*
G36*
X22737Y13252D02*
X22297D01*
X22304Y13202D01*
X22308Y13192D01*
X22302Y13091D01*
X22257Y13072D01*
X22234Y13062D01*
X22176Y13018D01*
X22132Y12960D01*
X22104Y12893D01*
X22094Y12820D01*
X22104Y12748D01*
X22132Y12680D01*
X22176Y12622D01*
X22234Y12578D01*
X22302Y12550D01*
X22374Y12540D01*
X22446Y12550D01*
X22514Y12578D01*
X22572Y12622D01*
X22616Y12680D01*
X22644Y12748D01*
X22653Y12816D01*
X22656Y12827D01*
X22737Y12912D01*
Y13252D01*
D02*
G37*
G36*
X25743Y12920D02*
X25603Y12906D01*
X25469Y12865D01*
X25346Y12799D01*
X25238Y12711D01*
X25149Y12602D01*
X25083Y12479D01*
X25042Y12345D01*
X25029Y12206D01*
X25042Y12067D01*
X25083Y11933D01*
X25149Y11809D01*
X25238Y11701D01*
X25346Y11612D01*
X25469Y11546D01*
X25603Y11506D01*
X25743Y11492D01*
X25882Y11506D01*
X26016Y11546D01*
X26139Y11612D01*
X26248Y11701D01*
X26336Y11809D01*
X26402Y11933D01*
X26443Y12067D01*
X26457Y12206D01*
X26443Y12345D01*
X26402Y12479D01*
X26336Y12602D01*
X26248Y12711D01*
X26139Y12799D01*
X26016Y12865D01*
X25882Y12906D01*
X25743Y12920D01*
D02*
G37*
G36*
X23278Y13252D02*
X22837D01*
Y12914D01*
X22896D01*
X22996Y12927D01*
X23090Y12966D01*
X23171Y13027D01*
X23232Y13108D01*
X23271Y13202D01*
X23278Y13252D01*
D02*
G37*
G36*
X21742Y13311D02*
X21341D01*
Y13032D01*
X21419D01*
X21504Y13043D01*
X21584Y13076D01*
X21652Y13129D01*
X21704Y13197D01*
X21737Y13276D01*
X21742Y13311D01*
D02*
G37*
G36*
X21241D02*
X20841D01*
X20845Y13276D01*
X20878Y13197D01*
X20931Y13129D01*
X20999Y13076D01*
X21078Y13043D01*
X21163Y13032D01*
X21241D01*
Y13311D01*
D02*
G37*
G36*
X21241Y10639D02*
X21163D01*
X21078Y10628D01*
X20999Y10595D01*
X20931Y10543D01*
X20878Y10475D01*
X20845Y10395D01*
X20841Y10360D01*
X21241D01*
Y10639D01*
D02*
G37*
G36*
X27633Y10440D02*
X27601Y10434D01*
X27531Y10387D01*
X27485Y10318D01*
X27479Y10286D01*
X27633D01*
Y10440D01*
D02*
G37*
G36*
X21419Y10639D02*
X21341D01*
Y10360D01*
X21742D01*
X21737Y10395D01*
X21704Y10475D01*
X21652Y10543D01*
X21584Y10595D01*
X21504Y10628D01*
X21419Y10639D01*
D02*
G37*
G36*
X22896Y10758D02*
X22837D01*
Y10419D01*
X23278D01*
X23271Y10470D01*
X23232Y10564D01*
X23171Y10644D01*
X23090Y10706D01*
X22996Y10745D01*
X22896Y10758D01*
D02*
G37*
G36*
X22374Y11131D02*
X22302Y11122D01*
X22234Y11094D01*
X22176Y11049D01*
X22132Y10992D01*
X22104Y10924D01*
X22094Y10852D01*
X22104Y10779D01*
X22132Y10712D01*
X22176Y10654D01*
X22234Y10609D01*
X22257Y10600D01*
X22302Y10581D01*
X22308Y10480D01*
X22304Y10470D01*
X22297Y10419D01*
X22737D01*
Y10760D01*
X22656Y10845D01*
X22653Y10856D01*
X22644Y10924D01*
X22616Y10992D01*
X22572Y11049D01*
X22514Y11094D01*
X22446Y11122D01*
X22374Y11131D01*
D02*
G37*
%LPD*%
G36*
X4847Y10963D02*
X10037D01*
Y10227D01*
X10484D01*
X10967Y9744D01*
Y9297D01*
X11429D01*
X11455Y9280D01*
X11541Y9263D01*
X13683D01*
Y8268D01*
X13671Y8253D01*
X13644Y8187D01*
X13635Y8117D01*
X13644Y8047D01*
X13671Y7981D01*
X13714Y7924D01*
X13771Y7881D01*
X13837Y7854D01*
X13907Y7845D01*
X13977Y7854D01*
X14043Y7881D01*
X14100Y7924D01*
X14143Y7981D01*
X14170Y8047D01*
X14179Y8117D01*
X14170Y8187D01*
X14143Y8253D01*
X14131Y8268D01*
Y8347D01*
X14773D01*
X14792Y8301D01*
X14142Y7650D01*
X12555D01*
X12548Y7700D01*
X12670Y7737D01*
X12794Y7803D01*
X12902Y7892D01*
X12991Y8000D01*
X13057Y8124D01*
X13097Y8258D01*
X13111Y8397D01*
X13097Y8536D01*
X13057Y8670D01*
X12991Y8794D01*
X12902Y8902D01*
X12794Y8991D01*
X12670Y9057D01*
X12536Y9097D01*
X12397Y9111D01*
X12258Y9097D01*
X12124Y9057D01*
X12000Y8991D01*
X11892Y8902D01*
X11803Y8794D01*
X11737Y8670D01*
X11697Y8536D01*
X11683Y8397D01*
X11697Y8258D01*
X11737Y8124D01*
X11803Y8000D01*
X11892Y7892D01*
X12000Y7803D01*
X12124Y7737D01*
X12246Y7700D01*
X12239Y7650D01*
X10742D01*
X10648Y7744D01*
X10653Y7781D01*
X10644Y7851D01*
X10617Y7917D01*
X10573Y7973D01*
X10517Y8017D01*
X10451Y8044D01*
X10381Y8053D01*
X10310Y8044D01*
X10245Y8017D01*
X10188Y7973D01*
X10145Y7917D01*
X10118Y7851D01*
X10108Y7781D01*
X10118Y7710D01*
X10145Y7645D01*
X10188Y7588D01*
X10245Y7545D01*
X10310Y7518D01*
X10381Y7508D01*
X10417Y7513D01*
X10544Y7387D01*
X10417Y7261D01*
X10381Y7266D01*
X10310Y7256D01*
X10245Y7229D01*
X10188Y7186D01*
X10145Y7129D01*
X10118Y7064D01*
X10108Y6993D01*
X10118Y6923D01*
X10145Y6857D01*
X10188Y6801D01*
X10245Y6757D01*
X10310Y6730D01*
X10381Y6721D01*
X10451Y6730D01*
X10517Y6757D01*
X10573Y6801D01*
X10617Y6857D01*
X10644Y6923D01*
X10653Y6993D01*
X10648Y7030D01*
X10752Y7134D01*
X14379D01*
X14442Y7146D01*
X14495Y7182D01*
X14704Y7391D01*
X14751Y7368D01*
X14745Y7317D01*
X14754Y7247D01*
X14781Y7181D01*
X14824Y7124D01*
X14881Y7081D01*
X14947Y7054D01*
X15017Y7045D01*
X15087Y7054D01*
X15153Y7081D01*
X15210Y7124D01*
X15253Y7181D01*
X15268Y7217D01*
X15571Y7521D01*
X15697D01*
X15759Y7533D01*
X15777Y7545D01*
X15827Y7518D01*
Y7458D01*
X15787Y7418D01*
Y7137D01*
X15737D01*
Y7087D01*
X15492D01*
X15502Y7039D01*
X15537Y6987D01*
X15510Y6937D01*
X11237D01*
Y4227D01*
Y4141D01*
X11147Y4137D01*
X6174Y4140D01*
X6162Y4190D01*
X6230Y4226D01*
X6329Y4308D01*
X6411Y4407D01*
X6471Y4520D01*
X6508Y4643D01*
X6516Y4720D01*
X5473D01*
X4430D01*
X4437Y4643D01*
X4475Y4520D01*
X4535Y4407D01*
X4616Y4308D01*
X4716Y4226D01*
X4783Y4191D01*
X4770Y4141D01*
X4277Y4141D01*
Y7157D01*
Y10687D01*
Y10967D01*
X4825D01*
X4847Y10963D01*
D02*
G37*
%LPC*%
G36*
X8143Y5602D02*
X7957D01*
X7829Y5589D01*
X7707Y5552D01*
X7594Y5492D01*
X7494Y5410D01*
X7413Y5311D01*
X7353Y5198D01*
X7315Y5075D01*
X7308Y4998D01*
X8143D01*
Y5602D01*
D02*
G37*
G36*
X8430D02*
X8243D01*
Y4998D01*
X9079D01*
X9071Y5075D01*
X9034Y5198D01*
X8974Y5311D01*
X8892Y5410D01*
X8793Y5492D01*
X8680Y5552D01*
X8557Y5589D01*
X8430Y5602D01*
D02*
G37*
G36*
X15687Y7382D02*
X15639Y7372D01*
X15557Y7317D01*
X15502Y7235D01*
X15492Y7187D01*
X15687D01*
Y7382D01*
D02*
G37*
G36*
X9079Y4898D02*
X8243D01*
Y4293D01*
X8430D01*
X8557Y4306D01*
X8680Y4343D01*
X8793Y4404D01*
X8892Y4485D01*
X8974Y4584D01*
X9034Y4697D01*
X9071Y4820D01*
X9079Y4898D01*
D02*
G37*
G36*
X8143D02*
X7308D01*
X7315Y4820D01*
X7353Y4697D01*
X7413Y4584D01*
X7494Y4485D01*
X7594Y4404D01*
X7707Y4343D01*
X7829Y4306D01*
X7957Y4293D01*
X8143D01*
Y4898D01*
D02*
G37*
G36*
X5867Y5425D02*
X5523D01*
Y4820D01*
X6516D01*
X6508Y4898D01*
X6471Y5021D01*
X6411Y5134D01*
X6329Y5233D01*
X6230Y5315D01*
X6117Y5375D01*
X5994Y5412D01*
X5867Y5425D01*
D02*
G37*
G36*
X5423D02*
X5079D01*
X4951Y5412D01*
X4829Y5375D01*
X4716Y5315D01*
X4616Y5233D01*
X4535Y5134D01*
X4475Y5021D01*
X4437Y4898D01*
X4430Y4820D01*
X5423D01*
Y5425D01*
D02*
G37*
G36*
X8430Y10681D02*
X8243D01*
Y10076D01*
X9079D01*
X9071Y10154D01*
X9034Y10277D01*
X8974Y10390D01*
X8892Y10489D01*
X8793Y10570D01*
X8680Y10631D01*
X8557Y10668D01*
X8430Y10681D01*
D02*
G37*
G36*
X8143D02*
X7957D01*
X7829Y10668D01*
X7707Y10631D01*
X7594Y10570D01*
X7494Y10489D01*
X7413Y10390D01*
X7353Y10277D01*
X7315Y10154D01*
X7308Y10076D01*
X8143D01*
Y10681D01*
D02*
G37*
G36*
X5867Y10858D02*
X5523D01*
Y10254D01*
X6516D01*
X6508Y10331D01*
X6471Y10454D01*
X6411Y10567D01*
X6329Y10666D01*
X6230Y10748D01*
X6117Y10808D01*
X5994Y10845D01*
X5867Y10858D01*
D02*
G37*
G36*
X5423D02*
X5079D01*
X4951Y10845D01*
X4829Y10808D01*
X4716Y10748D01*
X4616Y10666D01*
X4535Y10567D01*
X4475Y10454D01*
X4437Y10331D01*
X4430Y10254D01*
X5423D01*
Y10858D01*
D02*
G37*
G36*
X9079Y9976D02*
X8243D01*
Y9372D01*
X8430D01*
X8557Y9385D01*
X8680Y9422D01*
X8793Y9482D01*
X8892Y9564D01*
X8974Y9663D01*
X9034Y9776D01*
X9071Y9899D01*
X9079Y9976D01*
D02*
G37*
G36*
X8143D02*
X7308D01*
X7315Y9899D01*
X7353Y9776D01*
X7413Y9663D01*
X7494Y9564D01*
X7594Y9482D01*
X7707Y9422D01*
X7829Y9385D01*
X7957Y9372D01*
X8143D01*
Y9976D01*
D02*
G37*
G36*
X6516Y10154D02*
X5523D01*
Y9549D01*
X5867D01*
X5994Y9562D01*
X6117Y9599D01*
X6230Y9659D01*
X6329Y9741D01*
X6411Y9840D01*
X6471Y9953D01*
X6508Y10076D01*
X6516Y10154D01*
D02*
G37*
G36*
X5423D02*
X4430D01*
X4437Y10076D01*
X4475Y9953D01*
X4535Y9840D01*
X4616Y9741D01*
X4716Y9659D01*
X4829Y9599D01*
X4951Y9562D01*
X5079Y9549D01*
X5423D01*
Y10154D01*
D02*
G37*
%LPD*%
D10*
X28370Y7830D02*
D03*
Y8027D02*
D03*
Y8223D02*
D03*
Y8420D02*
D03*
Y8617D02*
D03*
Y8814D02*
D03*
Y9011D02*
D03*
Y9208D02*
D03*
Y9404D02*
D03*
Y9601D02*
D03*
Y9798D02*
D03*
Y9995D02*
D03*
D11*
X29000Y9897D02*
D03*
Y9700D02*
D03*
Y9503D02*
D03*
Y9306D02*
D03*
Y9109D02*
D03*
Y8912D02*
D03*
Y8716D02*
D03*
Y8322D02*
D03*
Y8519D02*
D03*
Y8125D02*
D03*
Y7928D02*
D03*
Y7731D02*
D03*
D12*
X26435Y9788D02*
X27785D01*
X25233Y8586D02*
X26435Y9788D01*
X25233Y8536D02*
Y8586D01*
D13*
X26383Y8886D02*
X26891Y9394D01*
X27483Y7486D02*
X27817Y7820D01*
X27483Y7186D02*
Y7486D01*
X26383Y8306D02*
X26393Y8296D01*
X26383Y8306D02*
Y8886D01*
X26833Y9036D02*
X27283D01*
X29000Y9897D02*
Y9901D01*
X28707Y9700D02*
X29000D01*
X28693Y9576D02*
X28766Y9503D01*
X29000D01*
X28742Y9306D02*
X29000D01*
X28644Y9404D02*
X28742Y9306D01*
X28370Y9404D02*
X28644D01*
X28693Y9086D02*
X28713Y9106D01*
X28693Y8956D02*
Y9086D01*
X28667Y8420D02*
X28766Y8519D01*
X28370Y8420D02*
X28667D01*
X28704Y8125D02*
X29000D01*
X28740Y7928D02*
X29000D01*
X28693Y7976D02*
X28740Y7928D01*
X28693Y7976D02*
Y8136D01*
X28747Y7731D02*
X29000D01*
X28649Y7830D02*
X28747Y7731D01*
X28370Y7830D02*
X28649D01*
X27908Y9011D02*
X28370D01*
X27733Y9186D02*
X27908Y9011D01*
X27953Y8814D02*
X28370D01*
X27733Y8594D02*
X27953Y8814D01*
X27283Y9036D02*
X27733Y8586D01*
X27937Y8420D02*
X28370D01*
X28369Y8026D02*
X28370Y8027D01*
X28070Y8223D02*
X28370D01*
X27873Y8026D02*
X28070Y8223D01*
X27393Y8026D02*
X27873D01*
X28369D01*
X27793Y8276D02*
X27937Y8420D01*
X27343Y8276D02*
X27793D01*
X27263Y8156D02*
X27393Y8026D01*
X27013Y8156D02*
X27263D01*
X26393Y8296D02*
X26793D01*
X26893Y8396D01*
X27223D01*
X27343Y8276D01*
X26901Y9404D02*
X28370D01*
X27795Y9798D02*
X28370D01*
X27992Y9601D02*
X28370D01*
X27795Y9798D02*
X27992Y9601D01*
X27827Y7830D02*
X28370D01*
X28766Y8519D02*
X29000D01*
X27683Y10236D02*
X27863D01*
X28103Y9995D01*
X28370D01*
X28693Y8956D02*
X28736Y8912D01*
X29000D01*
X28693Y8716D02*
X28999D01*
X28370Y9995D02*
X28643D01*
X28742Y9897D01*
X29000D01*
X28693Y9576D02*
Y9686D01*
X15017Y7317D02*
X15137D01*
X15504Y7684D01*
X15697D01*
X14379Y7297D02*
X15558Y8476D01*
X15697Y7684D02*
X15899Y7885D01*
X16096Y7689D01*
X17297D01*
X15899Y7885D02*
X17297D01*
X14264Y9460D02*
X17337D01*
X15937Y9437D02*
X16111Y9263D01*
X15737Y9987D02*
X16067Y9657D01*
X17337D01*
X15737Y7137D02*
X16092Y7492D01*
X17337D01*
X15395Y8673D02*
X17337D01*
X14209Y7487D02*
X15395Y8673D01*
X15558Y8476D02*
X17337D01*
X15038Y9066D02*
X17337D01*
X16111Y9263D02*
X17337D01*
X15702Y8082D02*
X17337D01*
X10684Y7297D02*
X14379D01*
X10674Y7487D02*
X14209D01*
X10381Y7781D02*
X10674Y7487D01*
X10381Y6993D02*
X10684Y7297D01*
D14*
X21963Y5866D02*
X22563D01*
X25233Y8536D01*
X21963Y4866D02*
X23763D01*
X27013Y8156D02*
X27033Y8136D01*
X23763Y4866D02*
X27033Y8136D01*
X10677Y11567D02*
X10957Y11287D01*
X5767Y11567D02*
X10677D01*
X5397Y11937D02*
X5767Y11567D01*
X14087Y9837D02*
X14237Y9687D01*
X11627Y9837D02*
X14087D01*
X10377Y10651D02*
X11541Y9487D01*
X13907Y8117D02*
Y9467D01*
X13887Y9487D02*
X13907Y9467D01*
X14237Y8987D02*
X14437Y8787D01*
X14237Y8987D02*
Y9687D01*
X11541Y9487D02*
X13887D01*
X10377Y10651D02*
Y11097D01*
X4457Y11577D02*
Y12807D01*
X4587Y12937D01*
X5397D01*
X10957Y10507D02*
X11627Y9837D01*
X10957Y10507D02*
Y11287D01*
X4457Y11577D02*
X4847Y11187D01*
X10287D01*
X10377Y11097D01*
D15*
X17267Y7492D02*
D03*
Y7689D02*
D03*
Y7885D02*
D03*
Y8082D02*
D03*
Y8279D02*
D03*
Y8476D02*
D03*
Y8673D02*
D03*
Y8870D02*
D03*
Y9066D02*
D03*
Y9263D02*
D03*
Y9460D02*
D03*
Y9657D02*
D03*
D16*
X28883Y10446D02*
D03*
Y7276D02*
D03*
D17*
X28645Y10564D02*
D03*
X28645Y7162D02*
D03*
D18*
X30633Y10564D02*
D03*
Y7162D02*
D03*
D19*
X21963Y5866D02*
D03*
Y4866D02*
D03*
X5397Y11927D02*
D03*
Y12927D02*
D03*
D20*
X21291Y13361D02*
D03*
Y10310D02*
D03*
D21*
X22787Y10369D02*
D03*
Y13302D02*
D03*
D22*
X25083Y7486D02*
D03*
X25233Y8536D02*
D03*
X27683Y10236D02*
D03*
X27483Y7186D02*
D03*
X25923Y8746D02*
D03*
X26393Y8296D02*
D03*
X27013Y8156D02*
D03*
D23*
X27733Y9186D02*
D03*
X26833Y9036D02*
D03*
X27733Y8586D02*
D03*
D24*
X28693Y8136D02*
D03*
Y9086D02*
D03*
Y8716D02*
D03*
Y9686D02*
D03*
D25*
X8193Y10026D02*
D03*
Y4948D02*
D03*
D26*
X5473Y4770D02*
D03*
Y10204D02*
D03*
D27*
X15017Y7317D02*
D03*
X13907Y8117D02*
D03*
X15007Y9097D02*
D03*
X13887Y9487D02*
D03*
X15737Y9987D02*
D03*
Y7137D02*
D03*
X14437Y8787D02*
D03*
X15632Y8082D02*
D03*
X10381Y7781D02*
D03*
Y6993D02*
D03*
M02*
