G04 Layer_Color=255*
%FSLAX25Y25*%
%MOIN*%
G70*
G01*
G75*
%ADD15R,0.19685X0.00787*%
%ADD16O,0.07874X0.05709*%
%ADD17O,0.07087X0.04528*%
%ADD18C,0.08500*%
%ADD19O,0.04331X0.06000*%
%ADD20O,0.09055X0.04724*%
%ADD21O,0.10236X0.05118*%
%ADD25O,0.15748X0.11024*%
%ADD26O,0.18898X0.11024*%
%ADD28R,0.05118X0.01772*%
%ADD29R,0.12795X0.05906*%
%ADD30R,0.19685X0.01575*%
D15*
X172670Y74917D02*
D03*
Y76885D02*
D03*
Y78854D02*
D03*
Y80822D02*
D03*
Y82791D02*
D03*
Y88696D02*
D03*
Y90665D02*
D03*
Y92633D02*
D03*
Y94602D02*
D03*
Y96570D02*
D03*
D16*
X227874Y133024D02*
D03*
Y103693D02*
D03*
D17*
X212913Y103102D02*
D03*
Y133614D02*
D03*
D18*
X219627Y48658D02*
D03*
Y58658D02*
D03*
X53970Y119270D02*
D03*
Y129270D02*
D03*
D19*
X288827Y72758D02*
D03*
Y104458D02*
D03*
D20*
X286453Y71624D02*
D03*
X286453Y105639D02*
D03*
D21*
X306335Y71624D02*
D03*
Y105639D02*
D03*
D25*
X81933Y100264D02*
D03*
Y49476D02*
D03*
D26*
X54728Y47705D02*
D03*
Y102035D02*
D03*
D28*
X228071Y118358D02*
D03*
Y115799D02*
D03*
Y113240D02*
D03*
Y120917D02*
D03*
Y123476D02*
D03*
D29*
X90870Y61090D02*
D03*
Y70933D02*
D03*
Y78807D02*
D03*
Y88650D02*
D03*
D30*
X172670Y98932D02*
D03*
Y72553D02*
D03*
M02*
