G04 Layer_Color=128*
%FSLAX25Y25*%
%MOIN*%
G70*
G01*
G75*
%ADD55C,0.00200*%
D55*
X222165Y128201D02*
X225315D01*
X223740Y126626D02*
Y129776D01*
X222165Y108516D02*
X225315D01*
X223740Y106941D02*
Y110091D01*
X226201Y133024D02*
X229547D01*
X227874Y131350D02*
Y134697D01*
X226201Y103693D02*
X229547D01*
X227874Y102020D02*
Y105366D01*
X211831Y103102D02*
X213996D01*
X212913Y102020D02*
Y104185D01*
X211831Y133614D02*
X213996D01*
X212913Y132531D02*
Y134697D01*
X217068Y48658D02*
X222186D01*
X219627Y46099D02*
Y51217D01*
X217068Y58658D02*
X222186D01*
X219627Y56099D02*
Y61217D01*
X287449Y72758D02*
X290205D01*
X288827Y71380D02*
Y74136D01*
X285272Y71624D02*
X287634D01*
X286453Y70442D02*
Y72805D01*
X293047Y74458D02*
X295606D01*
X294327Y73179D02*
Y75738D01*
X293087Y102805D02*
X295055D01*
X294071Y101821D02*
Y103789D01*
X304957Y71624D02*
X307713D01*
X306335Y70246D02*
Y73002D01*
X304957Y105639D02*
X307713D01*
X306335Y104261D02*
Y107017D01*
X285272Y105639D02*
X287634D01*
X286453Y104458D02*
Y106820D01*
X287449Y104458D02*
X290205D01*
X288827Y103080D02*
Y105836D01*
X251521Y54958D02*
X263332D01*
X257427Y49053D02*
Y60864D01*
X251521Y122058D02*
X263332D01*
X257427Y116153D02*
Y127964D01*
X286777Y87158D02*
X287077D01*
X286927Y87008D02*
Y87308D01*
X269627Y81558D02*
X270627D01*
X270127Y81058D02*
Y82058D01*
X286777Y90858D02*
X287077D01*
X286927Y90708D02*
Y91008D01*
X286777Y81358D02*
X287077D01*
X286927Y81208D02*
Y81508D01*
X286777Y96858D02*
X287077D01*
X286927Y96708D02*
Y97008D01*
X235127Y112358D02*
X236127D01*
X235627Y111858D02*
Y112858D01*
X277077Y85858D02*
X277577D01*
X277327Y85608D02*
Y86108D01*
X268077Y90358D02*
X268577D01*
X268327Y90108D02*
Y90608D01*
X277077Y91858D02*
X277577D01*
X277327Y91608D02*
Y92108D01*
X263427Y82958D02*
X264427D01*
X263927Y82458D02*
Y83458D01*
X258727Y87458D02*
X259727D01*
X259227Y86958D02*
Y87958D01*
X243327Y103858D02*
X244327D01*
X243827Y103358D02*
Y104358D01*
X251827Y95358D02*
X252827D01*
X252327Y94858D02*
Y95858D01*
X274327Y71858D02*
X275327D01*
X274827Y71358D02*
Y72358D01*
X276327Y102358D02*
X277327D01*
X276827Y101858D02*
Y102858D01*
X251827Y85358D02*
X252827D01*
X252327Y84858D02*
Y85858D01*
X51411Y119270D02*
X56529D01*
X53970Y116711D02*
Y121829D01*
X51411Y129270D02*
X56529D01*
X53970Y126711D02*
Y131829D01*
X80555Y100264D02*
X83311D01*
X81933Y98886D02*
Y101642D01*
X80555Y49476D02*
X83311D01*
X81933Y48098D02*
Y50854D01*
X53350Y47705D02*
X56106D01*
X54728Y46327D02*
Y49083D01*
X53350Y102035D02*
X56106D01*
X54728Y100657D02*
Y103413D01*
X118065Y83970D02*
X129876D01*
X123970Y78065D02*
Y89876D01*
X82065Y125470D02*
X93876D01*
X87970Y119565D02*
Y131376D01*
X149420Y73170D02*
X150920D01*
X150170Y72420D02*
Y73920D01*
X138320Y81170D02*
X139820D01*
X139070Y80420D02*
Y81920D01*
X149320Y90970D02*
X150820D01*
X150070Y90220D02*
Y91720D01*
X138120Y94870D02*
X139620D01*
X138870Y94120D02*
Y95620D01*
X156620Y99870D02*
X158120D01*
X157370Y99120D02*
Y100620D01*
X156620Y71370D02*
X158120D01*
X157370Y70620D02*
Y72120D01*
X143620Y87870D02*
X145120D01*
X144370Y87120D02*
Y88620D01*
X155568Y80822D02*
X157068D01*
X156318Y80072D02*
Y81572D01*
X103057Y77807D02*
X104557D01*
X103807Y77057D02*
Y78557D01*
X103057Y69933D02*
X104557D01*
X103807Y69183D02*
Y70683D01*
M02*
