G04 Layer_Color=255*
%FSLAX25Y25*%
%MOIN*%
G70*
G01*
G75*
%ADD10R,0.03150X0.01063*%
%ADD11R,0.03543X0.01063*%
%ADD15R,0.19685X0.00787*%
%ADD16O,0.07874X0.05709*%
%ADD17O,0.07087X0.04528*%
%ADD18C,0.08500*%
%ADD19O,0.04331X0.06000*%
%ADD20O,0.09055X0.04724*%
%ADD21O,0.10236X0.05118*%
%ADD25O,0.15748X0.11024*%
%ADD26O,0.18898X0.11024*%
D10*
X289996Y77313D02*
D03*
Y79281D02*
D03*
Y81250D02*
D03*
Y85187D02*
D03*
Y83218D02*
D03*
Y87155D02*
D03*
Y89124D02*
D03*
Y91092D02*
D03*
Y93061D02*
D03*
Y95029D02*
D03*
Y96998D02*
D03*
Y98966D02*
D03*
D11*
X283697Y99950D02*
D03*
Y97982D02*
D03*
Y96013D02*
D03*
Y94045D02*
D03*
Y92076D02*
D03*
Y90108D02*
D03*
Y88139D02*
D03*
Y86171D02*
D03*
Y84202D02*
D03*
Y82234D02*
D03*
Y80265D02*
D03*
Y78297D02*
D03*
D15*
X172670Y74917D02*
D03*
Y76885D02*
D03*
Y78854D02*
D03*
Y80822D02*
D03*
Y82791D02*
D03*
Y84759D02*
D03*
Y86728D02*
D03*
Y88696D02*
D03*
Y90665D02*
D03*
Y92633D02*
D03*
Y94602D02*
D03*
Y96570D02*
D03*
D16*
X227874Y133024D02*
D03*
Y103693D02*
D03*
D17*
X212913Y103102D02*
D03*
Y133614D02*
D03*
D18*
X219627Y48658D02*
D03*
Y58658D02*
D03*
X53970Y119270D02*
D03*
Y129270D02*
D03*
D19*
X288827Y72758D02*
D03*
Y104458D02*
D03*
D20*
X286453Y71624D02*
D03*
X286453Y105639D02*
D03*
D21*
X306335Y71624D02*
D03*
Y105639D02*
D03*
D25*
X81933Y100264D02*
D03*
Y49476D02*
D03*
D26*
X54728Y47705D02*
D03*
Y102035D02*
D03*
M02*
