M48
;Layer_Color=9474304
;FILE_FORMAT=2:4
INCH,LZ
;TYPE=PLATED
T4F00S00C0.0197
T5F00S00C0.0217
T6F00S00C0.0236
T7F00S00C0.0276
T8F00S00C0.0335
;TYPE=NON_PLATED
%
G90
G05
T04
G00X029407Y010212
M15
G01Y010349
M16
T05
G00X021163Y01031
M15
G01X021419
M16
G00X021163Y013361
M15
G01X021419
M16
T06
G00X028901Y007162
M15
G01X028389
M16
G00X028901Y010564
M15
G01X028389
M16
T07
G00X005079Y00477
M15
G01X005867
M16
G00X007957Y004948
M15
G01X00843
M16
G00X007957Y010026
M15
G01X00843
M16
G00X005079Y010204
M15
G01X005867
M16
G00X028883Y010354
M15
G01Y010538
M16
G00X030889Y010564
M15
G01X030378
M16
G00X030889Y007162
M15
G01X030378
M16
G00X028883Y007184
M15
G01Y007368
M16
T08
G00X022679Y010369
M15
G01X022896
M16
G00X022679Y013302
M15
G01X022896
M16
M17
M30
