G04 Layer_Physical_Order=1*
G04 Layer_Color=255*
%FSLAX25Y25*%
%MOIN*%
G70*
G01*
G75*
%ADD10R,0.03150X0.01063*%
%ADD11R,0.03543X0.01063*%
%ADD12C,0.00800*%
%ADD13C,0.02000*%
%ADD14C,0.01000*%
%ADD15R,0.19685X0.00787*%
%ADD16O,0.07874X0.05709*%
%ADD17O,0.07087X0.04528*%
%ADD18C,0.08500*%
%ADD19O,0.04331X0.06000*%
%ADD20O,0.09055X0.04724*%
%ADD21O,0.10236X0.05118*%
%ADD22C,0.01500*%
%ADD23C,0.02200*%
%ADD24C,0.01700*%
%ADD25O,0.15748X0.11024*%
%ADD26O,0.18898X0.11024*%
%ADD27C,0.03000*%
G36*
X277163Y96268D02*
X276628Y95268D01*
X269013D01*
X268545Y95175D01*
X268148Y94910D01*
X268108Y94850D01*
X268048Y94810D01*
X262962Y89723D01*
X262696Y89327D01*
X262603Y88858D01*
Y84359D01*
X262557Y84328D01*
X262137Y83700D01*
X261990Y82958D01*
X262137Y82217D01*
X262557Y81589D01*
X263186Y81169D01*
X263927Y81021D01*
X264668Y81169D01*
X265297Y81589D01*
X265394Y81735D01*
X266694D01*
X267108Y80735D01*
X255231Y68858D01*
X239729D01*
X239346Y69782D01*
X253262Y83698D01*
X253697Y83988D01*
X254117Y84617D01*
X254264Y85358D01*
X254171Y85828D01*
X256132Y87789D01*
X256724Y87584D01*
X257107Y87350D01*
X257249Y86639D01*
X257713Y85944D01*
X258407Y85480D01*
X258727Y85417D01*
Y87458D01*
X259227D01*
Y87958D01*
X261268D01*
X261205Y88278D01*
X260741Y88972D01*
X260046Y89436D01*
X259335Y89578D01*
X259102Y89961D01*
X258896Y90553D01*
X264899Y96556D01*
X276971D01*
X277163Y96268D01*
D02*
G37*
G36*
X272645Y79809D02*
X273062Y79393D01*
X273459Y79128D01*
X273927Y79035D01*
X275966D01*
X276349Y78111D01*
X273962Y75723D01*
X273696Y75327D01*
X273603Y74858D01*
Y73566D01*
X273313Y73372D01*
X272849Y72678D01*
X272785Y72358D01*
X274827D01*
Y71358D01*
X272785D01*
X272849Y71039D01*
X273313Y70344D01*
X274007Y69880D01*
X274117Y69858D01*
X274019Y68858D01*
X261729D01*
X261346Y69782D01*
X271624Y80061D01*
X272645Y79809D01*
D02*
G37*
G36*
X277327Y108658D02*
X278827D01*
Y104750D01*
X277827Y104216D01*
X277646Y104336D01*
X277327Y104400D01*
Y102358D01*
Y100310D01*
X278040Y99753D01*
X278173Y99543D01*
X278103Y99231D01*
X277850Y99207D01*
X264350D01*
X263843Y99107D01*
X263413Y98819D01*
X251781Y87187D01*
X251586Y87148D01*
X250957Y86728D01*
X250667Y86294D01*
X233231Y68858D01*
X206327D01*
Y134158D01*
X207865D01*
X207904Y134114D01*
Y134114D01*
X212913D01*
X217923D01*
Y134114D01*
X217962Y134158D01*
X222044D01*
X222601Y133524D01*
X227874D01*
X233147D01*
X233704Y134158D01*
X277327D01*
Y108658D01*
D02*
G37*
%LPC*%
G36*
X261268Y86958D02*
X259727D01*
Y85417D01*
X260046Y85480D01*
X260741Y85944D01*
X261205Y86639D01*
X261268Y86958D01*
D02*
G37*
G36*
X276327Y101858D02*
X274785D01*
X274849Y101539D01*
X275313Y100844D01*
X276007Y100380D01*
X276327Y100317D01*
Y101858D01*
D02*
G37*
G36*
X217419Y102602D02*
X213413D01*
Y99810D01*
X214193D01*
X215045Y99923D01*
X215839Y100251D01*
X216521Y100775D01*
X217044Y101456D01*
X217373Y102250D01*
X217419Y102602D01*
D02*
G37*
G36*
X212413D02*
X208408D01*
X208454Y102250D01*
X208783Y101456D01*
X209306Y100775D01*
X209988Y100251D01*
X210782Y99923D01*
X211634Y99810D01*
X212413D01*
Y102602D01*
D02*
G37*
G36*
X276327Y104400D02*
X276007Y104336D01*
X275313Y103872D01*
X274849Y103178D01*
X274785Y102858D01*
X276327D01*
Y104400D01*
D02*
G37*
G36*
X245868Y103358D02*
X244327D01*
Y101817D01*
X244646Y101880D01*
X245341Y102344D01*
X245805Y103039D01*
X245868Y103358D01*
D02*
G37*
G36*
X243327D02*
X241785D01*
X241849Y103039D01*
X242313Y102344D01*
X243007Y101880D01*
X243327Y101817D01*
Y103358D01*
D02*
G37*
G36*
X232779Y103193D02*
X228374D01*
Y99805D01*
X228957D01*
X229963Y99938D01*
X230901Y100326D01*
X231706Y100944D01*
X232324Y101749D01*
X232712Y102687D01*
X232779Y103193D01*
D02*
G37*
G36*
X254368Y94858D02*
X252827D01*
Y93317D01*
X253146Y93380D01*
X253841Y93844D01*
X254305Y94539D01*
X254368Y94858D01*
D02*
G37*
G36*
X251827D02*
X250285D01*
X250349Y94539D01*
X250813Y93844D01*
X251507Y93380D01*
X251827Y93317D01*
Y94858D01*
D02*
G37*
G36*
X227374Y103193D02*
X222970D01*
X223036Y102687D01*
X223425Y101749D01*
X224042Y100944D01*
X224848Y100326D01*
X225785Y99938D01*
X226791Y99805D01*
X227374D01*
Y103193D01*
D02*
G37*
G36*
X252827Y97400D02*
Y95858D01*
X254368D01*
X254305Y96178D01*
X253841Y96872D01*
X253146Y97336D01*
X252827Y97400D01*
D02*
G37*
G36*
X251827D02*
X251507Y97336D01*
X250813Y96872D01*
X250349Y96178D01*
X250285Y95858D01*
X251827D01*
Y97400D01*
D02*
G37*
G36*
X257427Y128997D02*
X256073Y128864D01*
X254771Y128469D01*
X253572Y127828D01*
X252520Y126965D01*
X251657Y125913D01*
X251016Y124714D01*
X250621Y123412D01*
X250488Y122058D01*
X250621Y120705D01*
X251016Y119403D01*
X251657Y118203D01*
X252520Y117152D01*
X253572Y116289D01*
X254771Y115648D01*
X256073Y115253D01*
X257427Y115119D01*
X258781Y115253D01*
X260082Y115648D01*
X261282Y116289D01*
X262333Y117152D01*
X263196Y118203D01*
X263838Y119403D01*
X264232Y120705D01*
X264366Y122058D01*
X264232Y123412D01*
X263838Y124714D01*
X263196Y125913D01*
X262333Y126965D01*
X261282Y127828D01*
X260082Y128469D01*
X258781Y128864D01*
X257427Y128997D01*
D02*
G37*
G36*
X236127Y114400D02*
Y112858D01*
X237668D01*
X237605Y113178D01*
X237141Y113872D01*
X236446Y114336D01*
X236127Y114400D01*
D02*
G37*
G36*
X235127D02*
X234807Y114336D01*
X234113Y113872D01*
X233649Y113178D01*
X233585Y112858D01*
X235127D01*
Y114400D01*
D02*
G37*
G36*
X227374Y132524D02*
X222970D01*
X223036Y132018D01*
X223155Y131729D01*
X223079Y130842D01*
X222617Y130523D01*
X222442Y130450D01*
X221904Y130037D01*
X221491Y129499D01*
X221232Y128873D01*
X221143Y128201D01*
X221232Y127529D01*
X221491Y126902D01*
X221904Y126364D01*
X222442Y125952D01*
X223068Y125692D01*
X223740Y125604D01*
X224412Y125692D01*
X225039Y125952D01*
X225577Y126364D01*
X225989Y126902D01*
X226249Y127529D01*
X226335Y128187D01*
X226338Y128202D01*
X226470Y128474D01*
X227160Y129132D01*
X227173Y129136D01*
X227374D01*
Y132524D01*
D02*
G37*
G36*
X217419Y133114D02*
X213413D01*
Y130322D01*
X214193D01*
X215045Y130434D01*
X215839Y130763D01*
X216521Y131286D01*
X217044Y131968D01*
X217373Y132762D01*
X217419Y133114D01*
D02*
G37*
G36*
X212413D02*
X208408D01*
X208454Y132762D01*
X208783Y131968D01*
X209306Y131286D01*
X209988Y130763D01*
X210782Y130434D01*
X211634Y130322D01*
X212413D01*
Y133114D01*
D02*
G37*
G36*
X232779Y132524D02*
X228374D01*
Y129136D01*
X228957D01*
X229963Y129269D01*
X230901Y129657D01*
X231706Y130275D01*
X232324Y131080D01*
X232712Y132018D01*
X232779Y132524D01*
D02*
G37*
G36*
X237668Y111858D02*
X236127D01*
Y110317D01*
X236446Y110380D01*
X237141Y110844D01*
X237605Y111539D01*
X237668Y111858D01*
D02*
G37*
G36*
X223740Y111113D02*
X223068Y111024D01*
X222442Y110765D01*
X221904Y110352D01*
X221491Y109814D01*
X221232Y109188D01*
X221143Y108516D01*
X221232Y107844D01*
X221491Y107217D01*
X221904Y106679D01*
X222442Y106267D01*
X222617Y106194D01*
X223079Y105875D01*
X223155Y104987D01*
X223036Y104699D01*
X222970Y104193D01*
X227374D01*
Y107580D01*
X227173D01*
X227160Y107584D01*
X226470Y108242D01*
X226338Y108514D01*
X226335Y108529D01*
X226249Y109188D01*
X225989Y109814D01*
X225577Y110352D01*
X225039Y110765D01*
X224412Y111024D01*
X223740Y111113D01*
D02*
G37*
G36*
X214193Y106394D02*
X213413D01*
Y103602D01*
X217419D01*
X217373Y103954D01*
X217044Y104748D01*
X216521Y105430D01*
X215839Y105953D01*
X215045Y106282D01*
X214193Y106394D01*
D02*
G37*
G36*
X212413D02*
X211634D01*
X210782Y106282D01*
X209988Y105953D01*
X209306Y105430D01*
X208783Y104748D01*
X208454Y103954D01*
X208408Y103602D01*
X212413D01*
Y106394D01*
D02*
G37*
G36*
X228957Y107580D02*
X228374D01*
Y104193D01*
X232779D01*
X232712Y104699D01*
X232324Y105637D01*
X231706Y106442D01*
X230901Y107060D01*
X229963Y107448D01*
X228957Y107580D01*
D02*
G37*
G36*
X235127Y111858D02*
X233585D01*
X233649Y111539D01*
X234113Y110844D01*
X234807Y110380D01*
X235127Y110317D01*
Y111858D01*
D02*
G37*
G36*
X244327Y105900D02*
Y104358D01*
X245868D01*
X245805Y104678D01*
X245341Y105372D01*
X244646Y105836D01*
X244327Y105900D01*
D02*
G37*
G36*
X243327D02*
X243007Y105836D01*
X242313Y105372D01*
X241849Y104678D01*
X241785Y104358D01*
X243327D01*
Y105900D01*
D02*
G37*
%LPD*%
G36*
X100370Y102270D02*
X105415D01*
X109670Y98015D01*
Y92970D01*
X137235D01*
Y82563D01*
X136904Y82068D01*
X136725Y81170D01*
X136904Y80273D01*
X137412Y79512D01*
X138173Y79004D01*
X139070Y78825D01*
X139968Y79004D01*
X140728Y79512D01*
X141237Y80273D01*
X141415Y81170D01*
X141237Y82068D01*
X140905Y82563D01*
Y83038D01*
X141070Y83470D01*
X148309D01*
X148500Y83008D01*
X141585Y76094D01*
X107251D01*
X106050Y77294D01*
X106152Y77807D01*
X105974Y78705D01*
X105465Y79465D01*
X104704Y79974D01*
X103807Y80152D01*
X102910Y79974D01*
X102149Y79465D01*
X101640Y78705D01*
X101462Y77807D01*
X101640Y76910D01*
X102149Y76149D01*
X102910Y75640D01*
X103807Y75462D01*
X104320Y75564D01*
X105674Y74210D01*
X105866Y73974D01*
X105680Y73536D01*
X104320Y72176D01*
X103807Y72278D01*
X102910Y72100D01*
X102149Y71591D01*
X101640Y70831D01*
X101462Y69933D01*
X101640Y69036D01*
X102149Y68275D01*
X102910Y67766D01*
X103807Y67588D01*
X104704Y67766D01*
X105465Y68275D01*
X105974Y69036D01*
X106152Y69933D01*
X106050Y70446D01*
X107351Y71747D01*
X143792D01*
X144260Y71840D01*
X144657Y72105D01*
X153534Y80981D01*
X153991Y80732D01*
X154151Y79925D01*
X154660Y79164D01*
X155421Y78655D01*
X155898Y78561D01*
X155849Y78061D01*
X155037D01*
X154569Y77968D01*
X154172Y77702D01*
X151510Y75041D01*
X151067Y75337D01*
X150170Y75515D01*
X149273Y75337D01*
X148512Y74828D01*
X148003Y74067D01*
X147825Y73170D01*
X148003Y72273D01*
X148512Y71512D01*
X149273Y71004D01*
X150170Y70825D01*
X151067Y71004D01*
X151828Y71512D01*
X152337Y72273D01*
X152370Y72439D01*
X155544Y75614D01*
X156970D01*
X157438Y75707D01*
X157770Y75928D01*
X158270Y75791D01*
Y74194D01*
X157870Y73849D01*
Y71370D01*
X157370D01*
Y70870D01*
X154921D01*
X155015Y70395D01*
X155366Y69870D01*
X155098Y69370D01*
X112370D01*
Y42270D01*
Y41409D01*
X111470Y41370D01*
X61742Y41399D01*
X61617Y41899D01*
X62301Y42264D01*
X63292Y43078D01*
X64106Y44069D01*
X64711Y45201D01*
X65083Y46428D01*
X65159Y47205D01*
X54728D01*
X44297D01*
X44374Y46428D01*
X44746Y45201D01*
X45351Y44069D01*
X46165Y43078D01*
X47156Y42264D01*
X47825Y41907D01*
X47700Y41407D01*
X42770Y41409D01*
Y71570D01*
Y106870D01*
Y109670D01*
X100370D01*
Y102270D01*
D02*
G37*
%LPC*%
G36*
X81433Y56020D02*
X79571D01*
X78294Y55894D01*
X77067Y55522D01*
X75936Y54917D01*
X74944Y54103D01*
X74130Y53112D01*
X73526Y51980D01*
X73153Y50753D01*
X73077Y49976D01*
X81433D01*
Y56020D01*
D02*
G37*
G36*
X84295D02*
X82433D01*
Y49976D01*
X90789D01*
X90713Y50753D01*
X90341Y51980D01*
X89736Y53112D01*
X88922Y54103D01*
X87931Y54917D01*
X86799Y55522D01*
X85572Y55894D01*
X84295Y56020D01*
D02*
G37*
G36*
X156870Y73820D02*
X156395Y73725D01*
X155568Y73172D01*
X155015Y72346D01*
X154921Y71870D01*
X156870D01*
Y73820D01*
D02*
G37*
G36*
X58665Y54248D02*
X55228D01*
Y48205D01*
X65159D01*
X65083Y48981D01*
X64711Y50209D01*
X64106Y51340D01*
X63292Y52332D01*
X62301Y53145D01*
X61169Y53750D01*
X59942Y54122D01*
X58665Y54248D01*
D02*
G37*
G36*
X81433Y48976D02*
X73077D01*
X73153Y48200D01*
X73526Y46972D01*
X74130Y45841D01*
X74944Y44850D01*
X75936Y44036D01*
X77067Y43431D01*
X78294Y43059D01*
X79571Y42933D01*
X81433D01*
Y48976D01*
D02*
G37*
G36*
X90789D02*
X82433D01*
Y42933D01*
X84295D01*
X85572Y43059D01*
X86799Y43431D01*
X87931Y44036D01*
X88922Y44850D01*
X89736Y45841D01*
X90341Y46972D01*
X90713Y48200D01*
X90789Y48976D01*
D02*
G37*
G36*
X54228Y54248D02*
X50791D01*
X49515Y54122D01*
X48287Y53750D01*
X47156Y53145D01*
X46165Y52332D01*
X45351Y51340D01*
X44746Y50209D01*
X44374Y48981D01*
X44297Y48205D01*
X54228D01*
Y54248D01*
D02*
G37*
G36*
X123970Y90909D02*
X122616Y90776D01*
X121315Y90381D01*
X120115Y89740D01*
X119063Y88877D01*
X118201Y87825D01*
X117559Y86625D01*
X117165Y85324D01*
X117031Y83970D01*
X117165Y82616D01*
X117559Y81315D01*
X118201Y80115D01*
X119063Y79063D01*
X120115Y78201D01*
X121315Y77559D01*
X122616Y77165D01*
X123970Y77031D01*
X125324Y77165D01*
X126626Y77559D01*
X127825Y78201D01*
X128877Y79063D01*
X129740Y80115D01*
X130381Y81315D01*
X130776Y82616D01*
X130909Y83970D01*
X130776Y85324D01*
X130381Y86625D01*
X129740Y87825D01*
X128877Y88877D01*
X127825Y89740D01*
X126626Y90381D01*
X125324Y90776D01*
X123970Y90909D01*
D02*
G37*
G36*
X84295Y106807D02*
X82433D01*
Y100764D01*
X90789D01*
X90713Y101540D01*
X90341Y102768D01*
X89736Y103899D01*
X88922Y104891D01*
X87931Y105704D01*
X86799Y106309D01*
X85572Y106681D01*
X84295Y106807D01*
D02*
G37*
G36*
X81433D02*
X79571D01*
X78294Y106681D01*
X77067Y106309D01*
X75936Y105704D01*
X74944Y104891D01*
X74130Y103899D01*
X73526Y102768D01*
X73153Y101540D01*
X73077Y100764D01*
X81433D01*
Y106807D01*
D02*
G37*
G36*
X58665Y108579D02*
X55228D01*
Y102535D01*
X65159D01*
X65083Y103312D01*
X64711Y104540D01*
X64106Y105671D01*
X63292Y106662D01*
X62301Y107476D01*
X61169Y108081D01*
X59942Y108453D01*
X58665Y108579D01*
D02*
G37*
G36*
X54228D02*
X50791D01*
X49515Y108453D01*
X48287Y108081D01*
X47156Y107476D01*
X46165Y106662D01*
X45351Y105671D01*
X44746Y104540D01*
X44374Y103312D01*
X44297Y102535D01*
X54228D01*
Y108579D01*
D02*
G37*
G36*
X90789Y99764D02*
X82433D01*
Y93721D01*
X84295D01*
X85572Y93846D01*
X86799Y94218D01*
X87931Y94823D01*
X88922Y95637D01*
X89736Y96628D01*
X90341Y97760D01*
X90713Y98987D01*
X90789Y99764D01*
D02*
G37*
G36*
X81433D02*
X73077D01*
X73153Y98987D01*
X73526Y97760D01*
X74130Y96628D01*
X74944Y95637D01*
X75936Y94823D01*
X77067Y94218D01*
X78294Y93846D01*
X79571Y93721D01*
X81433D01*
Y99764D01*
D02*
G37*
G36*
X65159Y101535D02*
X55228D01*
Y95492D01*
X58665D01*
X59942Y95618D01*
X61169Y95990D01*
X62301Y96595D01*
X63292Y97409D01*
X64106Y98400D01*
X64711Y99531D01*
X65083Y100759D01*
X65159Y101535D01*
D02*
G37*
G36*
X54228D02*
X44297D01*
X44374Y100759D01*
X44746Y99531D01*
X45351Y98400D01*
X46165Y97409D01*
X47156Y96595D01*
X48287Y95990D01*
X49515Y95618D01*
X50791Y95492D01*
X54228D01*
Y101535D01*
D02*
G37*
%LPD*%
D10*
X289996Y77313D02*
D03*
Y79281D02*
D03*
Y81250D02*
D03*
Y85187D02*
D03*
Y83218D02*
D03*
Y87155D02*
D03*
Y89124D02*
D03*
Y91092D02*
D03*
Y93061D02*
D03*
Y95029D02*
D03*
Y96998D02*
D03*
Y98966D02*
D03*
D11*
X283697Y99950D02*
D03*
Y97982D02*
D03*
Y96013D02*
D03*
Y94045D02*
D03*
Y92076D02*
D03*
Y90108D02*
D03*
Y88139D02*
D03*
Y86171D02*
D03*
Y84202D02*
D03*
Y82234D02*
D03*
Y80265D02*
D03*
Y78297D02*
D03*
D12*
X286927Y87158D02*
X289993D01*
X287362Y89124D02*
X289996D01*
X286927Y89558D02*
X287362Y89124D01*
X281035Y99950D02*
X283697D01*
X278627Y102358D02*
X281035Y99950D01*
X276827Y102358D02*
X278627D01*
X287655Y85187D02*
X289996D01*
X278265Y78297D02*
X283697D01*
X277950Y97982D02*
X279919Y96013D01*
X283697D01*
X277950Y97982D02*
X283697D01*
X269013Y94045D02*
X283697D01*
X272227Y83958D02*
X273427Y82758D01*
X268927Y83958D02*
X272227D01*
X267927Y82958D02*
X268927Y83958D01*
X263927Y82958D02*
X267927D01*
X270127Y81558D02*
X272627D01*
X273927Y80258D01*
X273427Y82758D02*
X277927D01*
X279371Y84202D01*
X278727Y80258D02*
X283690D01*
X273927D02*
X278727D01*
X280702Y82234D01*
X283697D01*
X283690Y80258D02*
X283697Y80265D01*
X279371Y84202D02*
X283697D01*
X272827Y90358D02*
X277327Y85858D01*
Y85939D02*
X279527Y88139D01*
X283697D01*
X277327Y91858D02*
X279077Y90108D01*
X283697D01*
Y78297D02*
X286488D01*
X287473Y77313D01*
X289996D01*
X286927Y79758D02*
Y81358D01*
Y79758D02*
X287404Y79281D01*
X289996D01*
X287035Y81250D02*
X289996D01*
X283697Y84202D02*
X286671D01*
X287655Y85187D01*
X286927Y89558D02*
Y90858D01*
X287127Y91058D01*
X283697Y94045D02*
X286440D01*
X287424Y93061D01*
X289996D01*
X287656Y95029D02*
X289996D01*
X286927Y95758D02*
X287656Y95029D01*
X286927Y95758D02*
Y96858D01*
X287066Y96998D02*
X289996D01*
X283697Y99950D02*
X286435D01*
X287419Y98966D01*
X289996D01*
Y99008D01*
X268327Y90358D02*
X272827D01*
X263827Y83058D02*
Y88858D01*
Y83058D02*
X263927Y82958D01*
X274827Y71858D02*
Y74858D01*
X278165Y78197D01*
X263827Y88858D02*
X268913Y93945D01*
X150170Y73170D02*
X151370D01*
X155037Y76837D01*
X156970D01*
X143792Y72970D02*
X155581Y84759D01*
X156970Y76837D02*
X158987Y78854D01*
X160955Y76885D01*
X172970D01*
X158987Y78854D02*
X172970D01*
X142639Y94602D02*
X173370D01*
X159370Y94370D02*
X161107Y92633D01*
X157370Y99870D02*
X160670Y96570D01*
X173370D01*
X157370Y71370D02*
X160917Y74917D01*
X173370D01*
X153950Y86728D02*
X173370D01*
X142092Y74870D02*
X153950Y86728D01*
X155581Y84759D02*
X173370D01*
X150376Y90665D02*
X173370D01*
X161107Y92633D02*
X173370D01*
X157022Y80822D02*
X173370D01*
X106844Y72970D02*
X143792D01*
X106744Y74870D02*
X142092D01*
X103807Y77807D02*
X106744Y74870D01*
X103807Y69933D02*
X106844Y72970D01*
D13*
X237627Y48658D02*
X270327Y81358D01*
X270127Y81558D02*
X270327Y81358D01*
X219627Y48658D02*
X237627D01*
X225627Y58658D02*
X252327Y85358D01*
X219627Y58658D02*
X225627D01*
X106770Y115670D02*
X109570Y112870D01*
X57670Y115670D02*
X106770D01*
X53970Y119370D02*
X57670Y115670D01*
X140870Y98370D02*
X142370Y96870D01*
X116270Y98370D02*
X140870D01*
X103770Y106510D02*
X115410Y94870D01*
X139070Y81170D02*
Y94670D01*
X138870Y94870D02*
X139070Y94670D01*
X142370Y89870D02*
X144370Y87870D01*
X142370Y89870D02*
Y96870D01*
X115410Y94870D02*
X138870D01*
X103770Y106510D02*
Y110970D01*
X44570Y115770D02*
Y128070D01*
X45870Y129370D01*
X53970D01*
X109570Y105070D02*
X116270Y98370D01*
X109570Y105070D02*
Y112870D01*
X44570Y115770D02*
X48470Y111870D01*
X102870D01*
X103770Y110970D01*
D14*
X252327Y85358D02*
Y85858D01*
X264350Y97882D01*
X277850D01*
D15*
X172670Y74917D02*
D03*
Y76885D02*
D03*
Y78854D02*
D03*
Y80822D02*
D03*
Y82791D02*
D03*
Y84759D02*
D03*
Y86728D02*
D03*
Y88696D02*
D03*
Y90665D02*
D03*
Y92633D02*
D03*
Y94602D02*
D03*
Y96570D02*
D03*
D16*
X227874Y133024D02*
D03*
Y103693D02*
D03*
D17*
X212913Y103102D02*
D03*
Y133614D02*
D03*
D18*
X219627Y48658D02*
D03*
Y58658D02*
D03*
X53970Y119270D02*
D03*
Y129270D02*
D03*
D19*
X288827Y72758D02*
D03*
Y104458D02*
D03*
D20*
X286453Y71624D02*
D03*
X286453Y105639D02*
D03*
D21*
X306335Y71624D02*
D03*
Y105639D02*
D03*
D22*
X286927Y87158D02*
D03*
Y90858D02*
D03*
Y81358D02*
D03*
Y96858D02*
D03*
D23*
X270127Y81558D02*
D03*
X235627Y112358D02*
D03*
X263927Y82958D02*
D03*
X259227Y87458D02*
D03*
X243827Y103858D02*
D03*
X252327Y95358D02*
D03*
X274827Y71858D02*
D03*
X276827Y102358D02*
D03*
X252327Y85358D02*
D03*
D24*
X277327Y85858D02*
D03*
X268327Y90358D02*
D03*
X277327Y91858D02*
D03*
D25*
X81933Y100264D02*
D03*
Y49476D02*
D03*
D26*
X54728Y47705D02*
D03*
Y102035D02*
D03*
D27*
X150170Y73170D02*
D03*
X139070Y81170D02*
D03*
X150070Y90970D02*
D03*
X138870Y94870D02*
D03*
X157370Y99870D02*
D03*
Y71370D02*
D03*
X144370Y87870D02*
D03*
X156318Y80822D02*
D03*
X103807Y77807D02*
D03*
Y69933D02*
D03*
M02*
