M48
;Layer_Color=9474304
;FILE_FORMAT=2:4
INCH,LZ
;TYPE=PLATED
T1F00S00C0.0050
T2F00S00C0.0100
T3F00S00C0.0150
T9F00S00C0.0512
;TYPE=NON_PLATED
T10F00S00C0.0256
T11F00S00C0.0315
T12F00S00C0.1181
T13F00S00C0.1181
%
T01
X026833Y009036
X027733Y009186
Y008586
X028693Y008716
Y009086
Y009686
Y008136
T02
X025233Y008536
X025923Y008746
X026393Y008296
X027013Y008156
X027483Y007186
X027683Y010236
X025233Y009536
X024383Y010386
X023563Y011236
T03
X010381Y006993
Y007781
X013907Y008117
X014437Y008787
X015007Y009097
X013887Y009487
X015017Y007317
X015737Y007137
X015632Y008082
X015737Y009987
T09
X005397Y011927
Y012927
X021963Y005866
Y004866
T10
X029433Y007446
T11
X022374Y010852
Y01282
T12
X008797Y012547
T13
X012397Y008397
X025743Y005496
Y012206
M30
