M48
;Layer_Color=9474304
;FILE_FORMAT=2:5
INCH,LZ
;TYPE=PLATED
T1F00S00C0.00300
T2F00S00C0.00500
T3F00S00C0.01000
T4F00S00C0.01500
T10F00S00C0.05118
;TYPE=NON_PLATED
T11F00S00C0.02559
T12F00S00C0.03150
T13F00S00C0.11811
T14F00S00C0.11811
%
T01
X0286927Y0081358
Y0087158
Y0090858
Y0096858
T02
X0268327Y0090358
X0277327Y0091858
Y0085858
T03
X0252327Y0085358
X0259227Y0087458
X0263927Y0082958
X0270127Y0081558
X0274827Y0071858
X0276827Y0102358
X0252327Y0095358
X0243827Y0103858
X0235627Y0112358
T04
X0103807Y0069933
Y0077807
X013907Y008117
X014437Y008787
X015007Y009097
X013887Y009487
X015017Y007317
X015737Y007137
X0156318Y0080822
X015737Y009987
T10
X005397Y011927
Y012927
X0219627Y0058658
Y0048658
T11
X0294327Y0074458
T12
X022374Y0108516
Y0128201
T13
X008797Y012547
T14
X012397Y008397
X0257427Y0054958
Y0122058
M30
