G04 Layer_Color=128*
%FSLAX24Y24*%
%MOIN*%
G70*
G01*
G75*
%ADD55C,0.0020*%
D55*
X25152Y5496D02*
X26333D01*
X25743Y4905D02*
Y6086D01*
X25152Y12206D02*
X26333D01*
X25743Y11615D02*
Y12796D01*
X28745Y7276D02*
X29020D01*
X28883Y7138D02*
Y7414D01*
X28527Y7162D02*
X28763D01*
X28645Y7044D02*
Y7280D01*
X29305Y7446D02*
X29561D01*
X29433Y7318D02*
Y7574D01*
X29309Y10280D02*
X29506D01*
X29407Y10182D02*
Y10379D01*
X30496Y7162D02*
X30771D01*
X30633Y7025D02*
Y7300D01*
X30496Y10564D02*
X30771D01*
X30633Y10426D02*
Y10702D01*
X28527Y10564D02*
X28763D01*
X28645Y10446D02*
Y10682D01*
X28745Y10446D02*
X29020D01*
X28883Y10308D02*
Y10584D01*
X21707Y4866D02*
X22219D01*
X21963Y4610D02*
Y5122D01*
X21707Y5866D02*
X22219D01*
X21963Y5610D02*
Y6122D01*
X22217Y12820D02*
X22531D01*
X22374Y12663D02*
Y12978D01*
X22217Y10852D02*
X22531D01*
X22374Y10694D02*
Y11009D01*
X22620Y13302D02*
X22955D01*
X22787Y13135D02*
Y13470D01*
X22620Y10369D02*
X22955D01*
X22787Y10202D02*
Y10537D01*
X21183Y10310D02*
X21400D01*
X21291Y10202D02*
Y10418D01*
X21183Y13361D02*
X21400D01*
X21291Y13253D02*
Y13470D01*
X28668Y9686D02*
X28718D01*
X28693Y9661D02*
Y9711D01*
X28668Y8716D02*
X28718D01*
X28693Y8691D02*
Y8741D01*
X26963Y8156D02*
X27063D01*
X27013Y8106D02*
Y8206D01*
X28668Y9086D02*
X28718D01*
X28693Y9061D02*
Y9111D01*
X28668Y8136D02*
X28718D01*
X28693Y8111D02*
Y8161D01*
X27708Y8586D02*
X27758D01*
X27733Y8561D02*
Y8611D01*
X26808Y9036D02*
X26858D01*
X26833Y9011D02*
Y9061D01*
X27708Y9186D02*
X27758D01*
X27733Y9161D02*
Y9211D01*
X26343Y8296D02*
X26443D01*
X26393Y8246D02*
Y8346D01*
X25873Y8746D02*
X25973D01*
X25923Y8696D02*
Y8796D01*
X27433Y7186D02*
X27533D01*
X27483Y7136D02*
Y7236D01*
X27633Y10236D02*
X27733D01*
X27683Y10186D02*
Y10286D01*
X25183Y8536D02*
X25283D01*
X25233Y8486D02*
Y8586D01*
X25033Y7486D02*
X25133D01*
X25083Y7436D02*
Y7536D01*
X8206Y12547D02*
X9388D01*
X8797Y11956D02*
Y13138D01*
X11806Y8397D02*
X12988D01*
X12397Y7806D02*
Y8988D01*
X5335Y10204D02*
X5611D01*
X5473Y10066D02*
Y10341D01*
X5335Y4770D02*
X5611D01*
X5473Y4633D02*
Y4908D01*
X8056Y4948D02*
X8331D01*
X8193Y4810D02*
Y5085D01*
X8056Y10026D02*
X8331D01*
X8193Y9889D02*
Y10164D01*
X5141Y11927D02*
X5653D01*
X5397Y11671D02*
Y12183D01*
X5141Y12927D02*
X5653D01*
X5397Y12671D02*
Y13183D01*
X10306Y6993D02*
X10456D01*
X10381Y6918D02*
Y7068D01*
X10306Y7781D02*
X10456D01*
X10381Y7706D02*
Y7856D01*
X15557Y8082D02*
X15707D01*
X15632Y8007D02*
Y8157D01*
X14362Y8787D02*
X14512D01*
X14437Y8712D02*
Y8862D01*
X15662Y7137D02*
X15812D01*
X15737Y7062D02*
Y7212D01*
X15662Y9987D02*
X15812D01*
X15737Y9912D02*
Y10062D01*
X13812Y9487D02*
X13962D01*
X13887Y9412D02*
Y9562D01*
X14932Y9097D02*
X15082D01*
X15007Y9022D02*
Y9172D01*
X13832Y8117D02*
X13982D01*
X13907Y8042D02*
Y8192D01*
X14942Y7317D02*
X15092D01*
X15017Y7242D02*
Y7392D01*
M02*
