G04 Layer_Color=255*
%FSLAX24Y24*%
%MOIN*%
G70*
G01*
G75*
%ADD10R,0.0354X0.0106*%
%ADD11R,0.0315X0.0106*%
%ADD15R,0.1969X0.0079*%
%ADD16O,0.0433X0.0600*%
%ADD17O,0.0906X0.0472*%
%ADD18O,0.1024X0.0512*%
%ADD19C,0.0850*%
%ADD20O,0.0709X0.0453*%
%ADD21O,0.0787X0.0571*%
%ADD25O,0.1575X0.1102*%
%ADD26O,0.1890X0.1102*%
D10*
X28370Y7830D02*
D03*
Y8027D02*
D03*
Y8223D02*
D03*
Y8420D02*
D03*
Y8617D02*
D03*
Y8814D02*
D03*
Y9011D02*
D03*
Y9208D02*
D03*
Y9404D02*
D03*
Y9601D02*
D03*
Y9798D02*
D03*
Y9995D02*
D03*
D11*
X29000Y9897D02*
D03*
Y9700D02*
D03*
Y9503D02*
D03*
Y9306D02*
D03*
Y9109D02*
D03*
Y8912D02*
D03*
Y8716D02*
D03*
Y8322D02*
D03*
Y8519D02*
D03*
Y8125D02*
D03*
Y7928D02*
D03*
Y7731D02*
D03*
D15*
X17267Y7492D02*
D03*
Y7689D02*
D03*
Y7885D02*
D03*
Y8082D02*
D03*
Y8279D02*
D03*
Y8476D02*
D03*
Y8673D02*
D03*
Y8870D02*
D03*
Y9066D02*
D03*
Y9263D02*
D03*
Y9460D02*
D03*
Y9657D02*
D03*
D16*
X28883Y10446D02*
D03*
Y7276D02*
D03*
D17*
X28645Y10564D02*
D03*
X28645Y7162D02*
D03*
D18*
X30633Y10564D02*
D03*
Y7162D02*
D03*
D19*
X21963Y5866D02*
D03*
Y4866D02*
D03*
X5397Y11927D02*
D03*
Y12927D02*
D03*
D20*
X21291Y13361D02*
D03*
Y10310D02*
D03*
D21*
X22787Y10369D02*
D03*
Y13302D02*
D03*
D25*
X8193Y10026D02*
D03*
Y4948D02*
D03*
D26*
X5473Y4770D02*
D03*
Y10204D02*
D03*
M02*
