G04 Layer_Color=2752767*
%FSLAX24Y24*%
%MOIN*%
G70*
G01*
G75*
%ADD54C,0.0020*%
%ADD55C,0.0027*%
%ADD56C,0.0013*%
D54*
X25663Y12126D02*
Y12286D01*
X25823D01*
Y12126D01*
X25663D01*
Y5416D02*
Y5576D01*
X25823D01*
Y5416D01*
X25663D01*
X28645Y10484D02*
X28565Y10644D01*
X28725D01*
X28645Y10484D01*
X30633D02*
X30673Y10524D01*
X30713D01*
X30673Y10564D01*
X30713Y10604D01*
X30673D01*
X30633Y10644D01*
X30593Y10604D01*
X30553D01*
X30593Y10564D01*
X30553Y10524D01*
X30593D01*
X30633Y10484D01*
Y7082D02*
X30673Y7122D01*
X30713D01*
X30673Y7162D01*
X30713Y7202D01*
X30673D01*
X30633Y7242D01*
X30593Y7202D01*
X30553D01*
X30593Y7162D01*
X30553Y7122D01*
X30593D01*
X30633Y7082D01*
X29327Y10200D02*
X29367Y10280D01*
X29327Y10360D01*
X29407Y10320D01*
X29487Y10360D01*
X29447Y10280D01*
X29487Y10200D01*
X29407Y10240D01*
X29327Y10200D01*
X29393Y7406D02*
Y7366D01*
X29473D01*
Y7406D01*
X29513D01*
Y7486D01*
X29473D01*
Y7526D01*
X29393D01*
Y7486D01*
X29353D01*
Y7406D01*
X29393D01*
X28645Y7082D02*
X28565Y7242D01*
X28725D01*
X28645Y7082D01*
X21883Y5786D02*
X21923D01*
X21963Y5826D01*
X22003Y5786D01*
X22043D01*
Y5826D01*
X22003Y5866D01*
X22043Y5906D01*
Y5946D01*
X22003D01*
X21963Y5906D01*
X21923Y5946D01*
X21883D01*
Y5906D01*
X21923Y5866D01*
X21883Y5826D01*
Y5786D01*
Y4786D02*
X21923D01*
X21963Y4826D01*
X22003Y4786D01*
X22043D01*
Y4826D01*
X22003Y4866D01*
X22043Y4906D01*
Y4946D01*
X22003D01*
X21963Y4906D01*
X21923Y4946D01*
X21883D01*
Y4906D01*
X21923Y4866D01*
X21883Y4826D01*
Y4786D01*
X21211Y13361D02*
X21291Y13441D01*
X21371Y13361D01*
X21291Y13281D01*
X21211Y13361D01*
Y10310D02*
X21291Y10390D01*
X21371Y10310D01*
X21291Y10230D01*
X21211Y10310D01*
X22707Y10289D02*
Y10449D01*
X22867D01*
Y10289D01*
X22707D01*
X22747Y10329D02*
Y10409D01*
X22827D01*
Y10329D01*
X22747D01*
X22707Y13222D02*
Y13382D01*
X22867D01*
Y13222D01*
X22707D01*
X22747Y13262D02*
Y13342D01*
X22827D01*
Y13262D01*
X22747D01*
X25083Y7406D02*
X25003Y7566D01*
X25163D01*
X25083Y7406D01*
Y7446D02*
X25043Y7526D01*
X25123D01*
X25083Y7446D01*
X25233Y8456D02*
X25153Y8616D01*
X25313D01*
X25233Y8456D01*
Y8496D02*
X25193Y8576D01*
X25273D01*
X25233Y8496D01*
X27683Y10156D02*
X27603Y10316D01*
X27763D01*
X27683Y10156D01*
Y10196D02*
X27643Y10276D01*
X27723D01*
X27683Y10196D01*
X27483Y7106D02*
X27403Y7266D01*
X27563D01*
X27483Y7106D01*
Y7146D02*
X27443Y7226D01*
X27523D01*
X27483Y7146D01*
X25923Y8666D02*
X25843Y8826D01*
X26003D01*
X25923Y8666D01*
Y8706D02*
X25883Y8786D01*
X25963D01*
X25923Y8706D01*
X26393Y8216D02*
X26313Y8376D01*
X26473D01*
X26393Y8216D01*
Y8256D02*
X26353Y8336D01*
X26433D01*
X26393Y8256D01*
X27733Y9106D02*
X27773Y9146D01*
X27813D01*
X27773Y9186D01*
X27813Y9226D01*
X27773D01*
X27733Y9266D01*
X27693Y9226D01*
X27653D01*
X27693Y9186D01*
X27653Y9146D01*
X27693D01*
X27733Y9106D01*
Y9146D02*
X27753Y9166D01*
X27773D01*
X27753Y9186D01*
X27773Y9206D01*
X27753D01*
X27733Y9226D01*
X27713Y9206D01*
X27693D01*
X27713Y9186D01*
X27693Y9166D01*
X27713D01*
X27733Y9146D01*
X26833Y8956D02*
X26873Y8996D01*
X26913D01*
X26873Y9036D01*
X26913Y9076D01*
X26873D01*
X26833Y9116D01*
X26793Y9076D01*
X26753D01*
X26793Y9036D01*
X26753Y8996D01*
X26793D01*
X26833Y8956D01*
Y8996D02*
X26853Y9016D01*
X26873D01*
X26853Y9036D01*
X26873Y9056D01*
X26853D01*
X26833Y9076D01*
X26813Y9056D01*
X26793D01*
X26813Y9036D01*
X26793Y9016D01*
X26813D01*
X26833Y8996D01*
X27733Y8506D02*
X27773Y8546D01*
X27813D01*
X27773Y8586D01*
X27813Y8626D01*
X27773D01*
X27733Y8666D01*
X27693Y8626D01*
X27653D01*
X27693Y8586D01*
X27653Y8546D01*
X27693D01*
X27733Y8506D01*
Y8546D02*
X27753Y8566D01*
X27773D01*
X27753Y8586D01*
X27773Y8606D01*
X27753D01*
X27733Y8626D01*
X27713Y8606D01*
X27693D01*
X27713Y8586D01*
X27693Y8566D01*
X27713D01*
X27733Y8546D01*
X28693Y8056D02*
X28733Y8096D01*
X28773D01*
X28733Y8136D01*
X28773Y8176D01*
X28733D01*
X28693Y8216D01*
X28653Y8176D01*
X28613D01*
X28653Y8136D01*
X28613Y8096D01*
X28653D01*
X28693Y8056D01*
Y8096D02*
X28713Y8116D01*
X28733D01*
X28713Y8136D01*
X28733Y8156D01*
X28713D01*
X28693Y8176D01*
X28673Y8156D01*
X28653D01*
X28673Y8136D01*
X28653Y8116D01*
X28673D01*
X28693Y8096D01*
Y9006D02*
X28733Y9046D01*
X28773D01*
X28733Y9086D01*
X28773Y9126D01*
X28733D01*
X28693Y9166D01*
X28653Y9126D01*
X28613D01*
X28653Y9086D01*
X28613Y9046D01*
X28653D01*
X28693Y9006D01*
Y9046D02*
X28713Y9066D01*
X28733D01*
X28713Y9086D01*
X28733Y9106D01*
X28713D01*
X28693Y9126D01*
X28673Y9106D01*
X28653D01*
X28673Y9086D01*
X28653Y9066D01*
X28673D01*
X28693Y9046D01*
X27013Y8076D02*
X26933Y8236D01*
X27093D01*
X27013Y8076D01*
Y8116D02*
X26973Y8196D01*
X27053D01*
X27013Y8116D01*
X28693Y8636D02*
X28733Y8676D01*
X28773D01*
X28733Y8716D01*
X28773Y8756D01*
X28733D01*
X28693Y8796D01*
X28653Y8756D01*
X28613D01*
X28653Y8716D01*
X28613Y8676D01*
X28653D01*
X28693Y8636D01*
Y8676D02*
X28713Y8696D01*
X28733D01*
X28713Y8716D01*
X28733Y8736D01*
X28713D01*
X28693Y8756D01*
X28673Y8736D01*
X28653D01*
X28673Y8716D01*
X28653Y8696D01*
X28673D01*
X28693Y8676D01*
Y9606D02*
X28733Y9646D01*
X28773D01*
X28733Y9686D01*
X28773Y9726D01*
X28733D01*
X28693Y9766D01*
X28653Y9726D01*
X28613D01*
X28653Y9686D01*
X28613Y9646D01*
X28653D01*
X28693Y9606D01*
Y9646D02*
X28713Y9666D01*
X28733D01*
X28713Y9686D01*
X28733Y9706D01*
X28713D01*
X28693Y9726D01*
X28673Y9706D01*
X28653D01*
X28673Y9686D01*
X28653Y9666D01*
X28673D01*
X28693Y9646D01*
X5317Y11847D02*
X5357D01*
X5397Y11887D01*
X5437Y11847D01*
X5477D01*
Y11887D01*
X5437Y11927D01*
X5477Y11967D01*
Y12007D01*
X5437D01*
X5397Y11967D01*
X5357Y12007D01*
X5317D01*
Y11967D01*
X5357Y11927D01*
X5317Y11887D01*
Y11847D01*
Y12847D02*
X5357D01*
X5397Y12887D01*
X5437Y12847D01*
X5477D01*
Y12887D01*
X5437Y12927D01*
X5477Y12967D01*
Y13007D01*
X5437D01*
X5397Y12967D01*
X5357Y13007D01*
X5317D01*
Y12967D01*
X5357Y12927D01*
X5317Y12887D01*
Y12847D01*
X8113Y9946D02*
X8153Y10026D01*
X8113Y10106D01*
X8193Y10066D01*
X8273Y10106D01*
X8233Y10026D01*
X8273Y9946D01*
X8193Y9986D01*
X8113Y9946D01*
X8153Y9986D02*
X8173Y10026D01*
X8153Y10066D01*
X8193Y10046D01*
X8233Y10066D01*
X8213Y10026D01*
X8233Y9986D01*
X8193Y10006D01*
X8153Y9986D01*
X8113Y4868D02*
X8153Y4948D01*
X8113Y5028D01*
X8193Y4988D01*
X8273Y5028D01*
X8233Y4948D01*
X8273Y4868D01*
X8193Y4908D01*
X8113Y4868D01*
X8153Y4908D02*
X8173Y4948D01*
X8153Y4988D01*
X8193Y4968D01*
X8233Y4988D01*
X8213Y4948D01*
X8233Y4908D01*
X8193Y4928D01*
X8153Y4908D01*
X5433Y4730D02*
Y4690D01*
X5513D01*
Y4730D01*
X5553D01*
Y4810D01*
X5513D01*
Y4850D01*
X5433D01*
Y4810D01*
X5393D01*
Y4730D01*
X5433D01*
X5453Y4750D02*
Y4730D01*
X5493D01*
Y4750D01*
X5513D01*
Y4790D01*
X5493D01*
Y4810D01*
X5453D01*
Y4790D01*
X5433D01*
Y4750D01*
X5453D01*
X5433Y10164D02*
Y10124D01*
X5513D01*
Y10164D01*
X5553D01*
Y10244D01*
X5513D01*
Y10284D01*
X5433D01*
Y10244D01*
X5393D01*
Y10164D01*
X5433D01*
X5453Y10184D02*
Y10164D01*
X5493D01*
Y10184D01*
X5513D01*
Y10224D01*
X5493D01*
Y10244D01*
X5453D01*
Y10224D01*
X5433D01*
Y10184D01*
X5453D01*
X12317Y8317D02*
Y8477D01*
X12477D01*
Y8317D01*
X12317D01*
X8717Y12467D02*
Y12627D01*
X8877D01*
Y12467D01*
X8717D01*
X14937Y7237D02*
X14977D01*
X15017Y7277D01*
X15057Y7237D01*
X15097D01*
Y7277D01*
X15057Y7317D01*
X15097Y7357D01*
Y7397D01*
X15057D01*
X15017Y7357D01*
X14977Y7397D01*
X14937D01*
Y7357D01*
X14977Y7317D01*
X14937Y7277D01*
Y7237D01*
X14977Y7277D02*
X14997D01*
X15017Y7297D01*
X15037Y7277D01*
X15057D01*
Y7297D01*
X15037Y7317D01*
X15057Y7337D01*
Y7357D01*
X15037D01*
X15017Y7337D01*
X14997Y7357D01*
X14977D01*
Y7337D01*
X14997Y7317D01*
X14977Y7297D01*
Y7277D01*
X13827Y8037D02*
X13867D01*
X13907Y8077D01*
X13947Y8037D01*
X13987D01*
Y8077D01*
X13947Y8117D01*
X13987Y8157D01*
Y8197D01*
X13947D01*
X13907Y8157D01*
X13867Y8197D01*
X13827D01*
Y8157D01*
X13867Y8117D01*
X13827Y8077D01*
Y8037D01*
X13867Y8077D02*
X13887D01*
X13907Y8097D01*
X13927Y8077D01*
X13947D01*
Y8097D01*
X13927Y8117D01*
X13947Y8137D01*
Y8157D01*
X13927D01*
X13907Y8137D01*
X13887Y8157D01*
X13867D01*
Y8137D01*
X13887Y8117D01*
X13867Y8097D01*
Y8077D01*
X14927Y9017D02*
X14967D01*
X15007Y9057D01*
X15047Y9017D01*
X15087D01*
Y9057D01*
X15047Y9097D01*
X15087Y9137D01*
Y9177D01*
X15047D01*
X15007Y9137D01*
X14967Y9177D01*
X14927D01*
Y9137D01*
X14967Y9097D01*
X14927Y9057D01*
Y9017D01*
X14967Y9057D02*
X14987D01*
X15007Y9077D01*
X15027Y9057D01*
X15047D01*
Y9077D01*
X15027Y9097D01*
X15047Y9117D01*
Y9137D01*
X15027D01*
X15007Y9117D01*
X14987Y9137D01*
X14967D01*
Y9117D01*
X14987Y9097D01*
X14967Y9077D01*
Y9057D01*
X13807Y9407D02*
X13847D01*
X13887Y9447D01*
X13927Y9407D01*
X13967D01*
Y9447D01*
X13927Y9487D01*
X13967Y9527D01*
Y9567D01*
X13927D01*
X13887Y9527D01*
X13847Y9567D01*
X13807D01*
Y9527D01*
X13847Y9487D01*
X13807Y9447D01*
Y9407D01*
X13847Y9447D02*
X13867D01*
X13887Y9467D01*
X13907Y9447D01*
X13927D01*
Y9467D01*
X13907Y9487D01*
X13927Y9507D01*
Y9527D01*
X13907D01*
X13887Y9507D01*
X13867Y9527D01*
X13847D01*
Y9507D01*
X13867Y9487D01*
X13847Y9467D01*
Y9447D01*
X15657Y9907D02*
X15697D01*
X15737Y9947D01*
X15777Y9907D01*
X15817D01*
Y9947D01*
X15777Y9987D01*
X15817Y10027D01*
Y10067D01*
X15777D01*
X15737Y10027D01*
X15697Y10067D01*
X15657D01*
Y10027D01*
X15697Y9987D01*
X15657Y9947D01*
Y9907D01*
X15697Y9947D02*
X15717D01*
X15737Y9967D01*
X15757Y9947D01*
X15777D01*
Y9967D01*
X15757Y9987D01*
X15777Y10007D01*
Y10027D01*
X15757D01*
X15737Y10007D01*
X15717Y10027D01*
X15697D01*
Y10007D01*
X15717Y9987D01*
X15697Y9967D01*
Y9947D01*
X15657Y7057D02*
X15697D01*
X15737Y7097D01*
X15777Y7057D01*
X15817D01*
Y7097D01*
X15777Y7137D01*
X15817Y7177D01*
Y7217D01*
X15777D01*
X15737Y7177D01*
X15697Y7217D01*
X15657D01*
Y7177D01*
X15697Y7137D01*
X15657Y7097D01*
Y7057D01*
X15697Y7097D02*
X15717D01*
X15737Y7117D01*
X15757Y7097D01*
X15777D01*
Y7117D01*
X15757Y7137D01*
X15777Y7157D01*
Y7177D01*
X15757D01*
X15737Y7157D01*
X15717Y7177D01*
X15697D01*
Y7157D01*
X15717Y7137D01*
X15697Y7117D01*
Y7097D01*
X14357Y8707D02*
X14397D01*
X14437Y8747D01*
X14477Y8707D01*
X14517D01*
Y8747D01*
X14477Y8787D01*
X14517Y8827D01*
Y8867D01*
X14477D01*
X14437Y8827D01*
X14397Y8867D01*
X14357D01*
Y8827D01*
X14397Y8787D01*
X14357Y8747D01*
Y8707D01*
X14397Y8747D02*
X14417D01*
X14437Y8767D01*
X14457Y8747D01*
X14477D01*
Y8767D01*
X14457Y8787D01*
X14477Y8807D01*
Y8827D01*
X14457D01*
X14437Y8807D01*
X14417Y8827D01*
X14397D01*
Y8807D01*
X14417Y8787D01*
X14397Y8767D01*
Y8747D01*
X15552Y8002D02*
X15592D01*
X15632Y8042D01*
X15672Y8002D01*
X15712D01*
Y8042D01*
X15672Y8082D01*
X15712Y8122D01*
Y8162D01*
X15672D01*
X15632Y8122D01*
X15592Y8162D01*
X15552D01*
Y8122D01*
X15592Y8082D01*
X15552Y8042D01*
Y8002D01*
X15592Y8042D02*
X15612D01*
X15632Y8062D01*
X15652Y8042D01*
X15672D01*
Y8062D01*
X15652Y8082D01*
X15672Y8102D01*
Y8122D01*
X15652D01*
X15632Y8102D01*
X15612Y8122D01*
X15592D01*
Y8102D01*
X15612Y8082D01*
X15592Y8062D01*
Y8042D01*
X10301Y7701D02*
X10341D01*
X10381Y7741D01*
X10421Y7701D01*
X10461D01*
Y7741D01*
X10421Y7781D01*
X10461Y7821D01*
Y7861D01*
X10421D01*
X10381Y7821D01*
X10341Y7861D01*
X10301D01*
Y7821D01*
X10341Y7781D01*
X10301Y7741D01*
Y7701D01*
X10341Y7741D02*
X10361D01*
X10381Y7761D01*
X10401Y7741D01*
X10421D01*
Y7761D01*
X10401Y7781D01*
X10421Y7801D01*
Y7821D01*
X10401D01*
X10381Y7801D01*
X10361Y7821D01*
X10341D01*
Y7801D01*
X10361Y7781D01*
X10341Y7761D01*
Y7741D01*
X10301Y6913D02*
X10341D01*
X10381Y6953D01*
X10421Y6913D01*
X10461D01*
Y6953D01*
X10421Y6993D01*
X10461Y7033D01*
Y7073D01*
X10421D01*
X10381Y7033D01*
X10341Y7073D01*
X10301D01*
Y7033D01*
X10341Y6993D01*
X10301Y6953D01*
Y6913D01*
X10341Y6953D02*
X10361D01*
X10381Y6973D01*
X10401Y6953D01*
X10421D01*
Y6973D01*
X10401Y6993D01*
X10421Y7013D01*
Y7033D01*
X10401D01*
X10381Y7013D01*
X10361Y7033D01*
X10341D01*
Y7013D01*
X10361Y6993D01*
X10341Y6973D01*
Y6953D01*
D55*
X28963Y10446D02*
G03*
X28963Y10446I-80J0D01*
G01*
Y7276D02*
G03*
X28963Y7276I-80J0D01*
G01*
X22454Y10852D02*
G03*
X22454Y10852I-80J0D01*
G01*
Y12820D02*
G03*
X22454Y12820I-80J0D01*
G01*
D56*
X22414Y10852D02*
G03*
X22414Y10852I-40J0D01*
G01*
Y12820D02*
G03*
X22414Y12820I-40J0D01*
G01*
M02*
