G04 Layer_Physical_Order=2*
G04 Layer_Color=16711680*
%FSLAX24Y24*%
%MOIN*%
G70*
G01*
G75*
%ADD12C,0.0100*%
%ADD13C,0.0080*%
%ADD14C,0.0200*%
%ADD15R,0.1969X0.0079*%
%ADD16O,0.0433X0.0600*%
%ADD17O,0.0906X0.0472*%
%ADD18O,0.1024X0.0512*%
%ADD19C,0.0850*%
%ADD20O,0.0709X0.0453*%
%ADD21O,0.0787X0.0571*%
%ADD22C,0.0220*%
%ADD23C,0.0170*%
%ADD24C,0.0150*%
%ADD25O,0.1575X0.1102*%
%ADD26O,0.1890X0.1102*%
%ADD27C,0.0300*%
%ADD28R,0.0512X0.0177*%
%ADD29R,0.1280X0.0591*%
%ADD30R,0.1969X0.0157*%
%ADD31C,0.0150*%
%ADD32C,0.0250*%
G36*
X26449Y8670D02*
X26502Y8635D01*
X26565Y8623D01*
X27083D01*
X27145Y8635D01*
X27198Y8670D01*
X27550Y9023D01*
X27608D01*
X27653Y8993D01*
X27733Y8977D01*
X27756Y8981D01*
X27805Y8889D01*
X27706Y8789D01*
X27653Y8779D01*
X27585Y8734D01*
X27540Y8666D01*
X27524Y8586D01*
X27540Y8506D01*
X27585Y8438D01*
X27653Y8393D01*
X27733Y8377D01*
X27813Y8393D01*
X27880Y8438D01*
X27926Y8506D01*
X27936Y8559D01*
X28300Y8923D01*
X28474D01*
X28512Y8879D01*
X28530Y8823D01*
X28509Y8792D01*
X28494Y8716D01*
X28509Y8640D01*
X28523Y8619D01*
X28522Y8593D01*
X28498Y8505D01*
X28493Y8498D01*
X28467Y8481D01*
X27995Y8009D01*
X27311D01*
X27293Y8022D01*
X27236Y8099D01*
X27247Y8156D01*
X27229Y8246D01*
X27178Y8322D01*
X27102Y8372D01*
X27013Y8390D01*
X26923Y8372D01*
X26847Y8322D01*
X26796Y8246D01*
X26778Y8156D01*
X26796Y8066D01*
X26847Y7990D01*
X26858Y7982D01*
X26862Y7963D01*
X26897Y7910D01*
X26999Y7809D01*
X26957Y7709D01*
X26154D01*
X25483Y8381D01*
X25497Y8435D01*
X25608Y8466D01*
X25900Y8173D01*
X25956Y8136D01*
X26023Y8123D01*
X26238D01*
X26303Y8079D01*
X26393Y8061D01*
X26482Y8079D01*
X26558Y8130D01*
X26609Y8206D01*
X26627Y8296D01*
X26609Y8386D01*
X26558Y8462D01*
X26482Y8512D01*
X26393Y8530D01*
X26303Y8512D01*
X26238Y8469D01*
X26154D01*
X26071Y8559D01*
X26074Y8594D01*
X26121Y8664D01*
X26127Y8696D01*
X25923D01*
Y8746D01*
X25873D01*
Y8950D01*
X25841Y8944D01*
X25771Y8897D01*
X25676Y8888D01*
X23396Y11168D01*
Y11286D01*
X23383Y11352D01*
X23362Y11383D01*
X23391Y11460D01*
X23412Y11483D01*
X23637D01*
X26449Y8670D01*
D02*
G37*
G36*
X27733Y13312D02*
Y10886D01*
Y10856D01*
X28103D01*
X28152Y10756D01*
X28135Y10733D01*
X28101Y10652D01*
X28096Y10614D01*
X28645D01*
Y10514D01*
X28096D01*
X28101Y10476D01*
X28135Y10394D01*
X28189Y10324D01*
X28259Y10270D01*
X28341Y10236D01*
X28429Y10225D01*
X28597D01*
X28606Y10203D01*
X28657Y10137D01*
X28723Y10086D01*
X28800Y10054D01*
X28833Y10050D01*
Y10446D01*
X28933D01*
Y10050D01*
X28965Y10054D01*
X29042Y10086D01*
X29099Y10129D01*
X29141Y10128D01*
X29213Y10109D01*
X29250Y10054D01*
X29322Y10006D01*
X29407Y9989D01*
X29492Y10006D01*
X29565Y10054D01*
X29613Y10126D01*
X29630Y10212D01*
Y10349D01*
X29613Y10435D01*
X29565Y10507D01*
X29492Y10555D01*
X29407Y10572D01*
X29322Y10555D01*
X29301Y10541D01*
X29288Y10542D01*
X29265Y10548D01*
X29197Y10592D01*
X29189Y10652D01*
X29155Y10733D01*
X29138Y10756D01*
X29188Y10856D01*
X30027D01*
X30076Y10756D01*
X30067Y10743D01*
X30031Y10657D01*
X30025Y10614D01*
X30633D01*
Y10564D01*
X30683D01*
Y10205D01*
X30889D01*
X30982Y10217D01*
X31069Y10253D01*
X31083Y10264D01*
X31183Y10214D01*
Y7512D01*
X31083Y7463D01*
X31069Y7473D01*
X30982Y7509D01*
X30889Y7521D01*
X30683D01*
Y7162D01*
X30633D01*
Y7112D01*
X30025D01*
X30031Y7069D01*
X30045Y7036D01*
X29983Y6936D01*
X29229D01*
X29173Y7036D01*
X29189Y7075D01*
X29201Y7162D01*
X29199Y7174D01*
X29201Y7182D01*
X29226Y7203D01*
X29302Y7235D01*
X29336Y7212D01*
X29433Y7193D01*
X29529Y7212D01*
X29611Y7267D01*
X29666Y7349D01*
X29685Y7446D01*
X29666Y7543D01*
X29611Y7625D01*
X29529Y7679D01*
X29433Y7699D01*
X29336Y7679D01*
X29254Y7625D01*
X29231Y7590D01*
X29112Y7580D01*
X29108Y7585D01*
X29042Y7636D01*
X28965Y7668D01*
X28933Y7672D01*
Y7276D01*
X28833D01*
Y7672D01*
X28800Y7668D01*
X28723Y7636D01*
X28657Y7585D01*
X28606Y7519D01*
X28599Y7501D01*
X28445D01*
X28418Y7539D01*
X28401Y7599D01*
X28750Y7949D01*
X28769Y7952D01*
X28833Y7995D01*
X28876Y8060D01*
X28891Y8136D01*
X28946Y8203D01*
X29353D01*
X29415Y8215D01*
X29468Y8250D01*
X29658Y8440D01*
X29693Y8493D01*
X29706Y8556D01*
Y9686D01*
X29693Y9748D01*
X29658Y9801D01*
X29605Y9837D01*
X29543Y9849D01*
X28800D01*
X28769Y9870D01*
X28693Y9885D01*
X28617Y9870D01*
X28552Y9826D01*
X28509Y9762D01*
X28494Y9686D01*
X28509Y9610D01*
X28540Y9564D01*
X28518Y9496D01*
X28495Y9464D01*
X28193D01*
X28193Y9464D01*
X28131Y9452D01*
X28078Y9416D01*
X28011Y9349D01*
X27858D01*
X27813Y9379D01*
X27733Y9395D01*
X27653Y9379D01*
X27608Y9349D01*
X27483D01*
X27420Y9337D01*
X27367Y9301D01*
X27137Y9071D01*
X27028Y9104D01*
X27026Y9116D01*
X26980Y9184D01*
X26913Y9229D01*
X26833Y9245D01*
X26753Y9229D01*
X26735Y9217D01*
X26619D01*
X23895Y11941D01*
X23842Y11977D01*
X23779Y11989D01*
X23221D01*
X23183Y12020D01*
Y12300D01*
X23163D01*
Y12300D01*
X22807D01*
X22451D01*
Y12300D01*
X22431D01*
Y11883D01*
Y11627D01*
Y11182D01*
X22374Y11131D01*
X22368Y11131D01*
X22302Y11122D01*
X22234Y11094D01*
X22176Y11049D01*
X22132Y10992D01*
X22104Y10924D01*
X22094Y10852D01*
X22104Y10779D01*
X22132Y10712D01*
X22176Y10654D01*
X22234Y10609D01*
X22257Y10600D01*
X22302Y10581D01*
X22308Y10480D01*
X22304Y10470D01*
X22297Y10419D01*
X22737D01*
Y10760D01*
X22656Y10845D01*
X22653Y10856D01*
X22644Y10924D01*
X22616Y10992D01*
X22598Y11015D01*
X22642Y11115D01*
X23049D01*
Y11096D01*
X23063Y11029D01*
X23100Y10973D01*
X25206Y8867D01*
X25173Y8759D01*
X25143Y8752D01*
X25067Y8702D01*
X25016Y8626D01*
X24998Y8536D01*
X25016Y8446D01*
X25061Y8379D01*
X25073Y8320D01*
X25110Y8263D01*
X25960Y7413D01*
X25960Y7413D01*
X26016Y7376D01*
X26083Y7362D01*
X26083Y7362D01*
X27228D01*
X27284Y7269D01*
X27284Y7262D01*
X27279Y7236D01*
X27687D01*
X27682Y7262D01*
X27681Y7269D01*
X27737Y7362D01*
X28039D01*
X28106Y7273D01*
X28107Y7265D01*
X28101Y7250D01*
X28096Y7212D01*
X28645D01*
Y7112D01*
X28096D01*
X28101Y7075D01*
X28117Y7036D01*
X28061Y6936D01*
X27723D01*
Y6717D01*
X27652Y6647D01*
X20633Y6736D01*
Y13416D01*
X20786D01*
X20790Y13411D01*
Y13411D01*
X21291D01*
X21792D01*
Y13411D01*
X21796Y13416D01*
X22204D01*
X22260Y13352D01*
X22787D01*
X23315D01*
X23370Y13416D01*
X27733D01*
Y13312D01*
D02*
G37*
%LPC*%
G36*
X25973Y8950D02*
Y8796D01*
X26127D01*
X26121Y8828D01*
X26074Y8897D01*
X26005Y8944D01*
X25973Y8950D01*
D02*
G37*
G36*
X22737Y10319D02*
X22297D01*
X22304Y10269D01*
X22342Y10175D01*
X22404Y10094D01*
X22485Y10033D01*
X22579Y9994D01*
X22679Y9981D01*
X22737D01*
Y10319D01*
D02*
G37*
G36*
X21742Y10260D02*
X21341D01*
Y9981D01*
X21419D01*
X21504Y9992D01*
X21584Y10025D01*
X21652Y10077D01*
X21704Y10146D01*
X21737Y10225D01*
X21742Y10260D01*
D02*
G37*
G36*
X21241D02*
X20841D01*
X20845Y10225D01*
X20878Y10146D01*
X20931Y10077D01*
X20999Y10025D01*
X21078Y9992D01*
X21163Y9981D01*
X21241D01*
Y10260D01*
D02*
G37*
G36*
X23278Y10319D02*
X22837D01*
Y9981D01*
X22896D01*
X22996Y9994D01*
X23090Y10033D01*
X23171Y10094D01*
X23232Y10175D01*
X23271Y10269D01*
X23278Y10319D01*
D02*
G37*
G36*
X25133Y7690D02*
Y7536D01*
X25287D01*
X25280Y7568D01*
X25234Y7637D01*
X25165Y7684D01*
X25133Y7690D01*
D02*
G37*
G36*
X30583Y7521D02*
X30378D01*
X30285Y7509D01*
X30198Y7473D01*
X30124Y7416D01*
X30067Y7342D01*
X30031Y7255D01*
X30025Y7212D01*
X30583D01*
Y7521D01*
D02*
G37*
G36*
X27687Y7136D02*
X27533D01*
Y6982D01*
X27565Y6988D01*
X27634Y7034D01*
X27680Y7104D01*
X27687Y7136D01*
D02*
G37*
G36*
X27433D02*
X27279D01*
X27285Y7104D01*
X27331Y7034D01*
X27401Y6988D01*
X27433Y6982D01*
Y7136D01*
D02*
G37*
G36*
X25033Y7690D02*
X25001Y7684D01*
X24931Y7637D01*
X24885Y7568D01*
X24879Y7536D01*
X25033D01*
Y7690D01*
D02*
G37*
G36*
X25287Y7436D02*
X25133D01*
Y7282D01*
X25165Y7288D01*
X25234Y7334D01*
X25280Y7404D01*
X25287Y7436D01*
D02*
G37*
G36*
X25033D02*
X24879D01*
X24885Y7404D01*
X24931Y7334D01*
X25001Y7288D01*
X25033Y7282D01*
Y7436D01*
D02*
G37*
G36*
X27633Y10186D02*
X27479D01*
X27485Y10154D01*
X27531Y10084D01*
X27601Y10038D01*
X27633Y10032D01*
Y10186D01*
D02*
G37*
G36*
X23163Y12536D02*
X22857D01*
Y12398D01*
X23163D01*
Y12536D01*
D02*
G37*
G36*
X22737Y13252D02*
X22297D01*
X22304Y13202D01*
X22308Y13192D01*
X22302Y13091D01*
X22257Y13072D01*
X22234Y13062D01*
X22176Y13018D01*
X22132Y12960D01*
X22104Y12893D01*
X22094Y12820D01*
X22104Y12748D01*
X22132Y12680D01*
X22176Y12622D01*
X22234Y12578D01*
X22302Y12550D01*
X22354Y12543D01*
X22374Y12540D01*
X22451Y12450D01*
Y12398D01*
X22757D01*
Y12536D01*
X22624D01*
X22596Y12582D01*
X22583Y12636D01*
X22616Y12680D01*
X22644Y12748D01*
X22653Y12816D01*
X22656Y12827D01*
X22737Y12912D01*
Y13252D01*
D02*
G37*
G36*
X25743Y12920D02*
X25603Y12906D01*
X25469Y12865D01*
X25346Y12799D01*
X25238Y12711D01*
X25149Y12602D01*
X25083Y12479D01*
X25042Y12345D01*
X25029Y12206D01*
X25042Y12067D01*
X25083Y11933D01*
X25149Y11809D01*
X25238Y11701D01*
X25346Y11612D01*
X25469Y11546D01*
X25603Y11506D01*
X25743Y11492D01*
X25882Y11506D01*
X26016Y11546D01*
X26139Y11612D01*
X26248Y11701D01*
X26336Y11809D01*
X26402Y11933D01*
X26443Y12067D01*
X26457Y12206D01*
X26443Y12345D01*
X26402Y12479D01*
X26336Y12602D01*
X26248Y12711D01*
X26139Y12799D01*
X26016Y12865D01*
X25882Y12906D01*
X25743Y12920D01*
D02*
G37*
G36*
X21742Y13311D02*
X21341D01*
Y13032D01*
X21419D01*
X21504Y13043D01*
X21584Y13076D01*
X21652Y13129D01*
X21704Y13197D01*
X21737Y13276D01*
X21742Y13311D01*
D02*
G37*
G36*
X21241D02*
X20841D01*
X20845Y13276D01*
X20878Y13197D01*
X20931Y13129D01*
X20999Y13076D01*
X21078Y13043D01*
X21163Y13032D01*
X21241D01*
Y13311D01*
D02*
G37*
G36*
X23278Y13252D02*
X22837D01*
Y12914D01*
X22896D01*
X22996Y12927D01*
X23090Y12966D01*
X23171Y13027D01*
X23232Y13108D01*
X23271Y13202D01*
X23278Y13252D01*
D02*
G37*
G36*
X22896Y10758D02*
X22837D01*
Y10419D01*
X23278D01*
X23271Y10470D01*
X23232Y10564D01*
X23171Y10644D01*
X23090Y10706D01*
X22996Y10745D01*
X22896Y10758D01*
D02*
G37*
G36*
X27633Y10440D02*
X27601Y10434D01*
X27531Y10387D01*
X27485Y10318D01*
X27479Y10286D01*
X27633D01*
Y10440D01*
D02*
G37*
G36*
X30583Y10514D02*
X30025D01*
X30031Y10471D01*
X30067Y10384D01*
X30124Y10310D01*
X30198Y10253D01*
X30285Y10217D01*
X30378Y10205D01*
X30583D01*
Y10514D01*
D02*
G37*
G36*
X27887Y10186D02*
X27733D01*
Y10032D01*
X27765Y10038D01*
X27834Y10084D01*
X27880Y10154D01*
X27887Y10186D01*
D02*
G37*
G36*
X21419Y10639D02*
X21341D01*
Y10360D01*
X21742D01*
X21737Y10395D01*
X21704Y10475D01*
X21652Y10543D01*
X21584Y10595D01*
X21504Y10628D01*
X21419Y10639D01*
D02*
G37*
G36*
X21241D02*
X21163D01*
X21078Y10628D01*
X20999Y10595D01*
X20931Y10543D01*
X20878Y10475D01*
X20845Y10395D01*
X20841Y10360D01*
X21241D01*
Y10639D01*
D02*
G37*
G36*
X27733Y10440D02*
Y10286D01*
X27887D01*
X27880Y10318D01*
X27834Y10387D01*
X27765Y10434D01*
X27733Y10440D01*
D02*
G37*
%LPD*%
G36*
X10040Y10187D02*
X15366D01*
X15395Y10165D01*
X15475Y10037D01*
X15737D01*
Y9937D01*
X15492D01*
X15502Y9889D01*
X15557Y9807D01*
X15577Y9793D01*
X15525Y9623D01*
X14123D01*
X14080Y9680D01*
X14023Y9723D01*
X13957Y9750D01*
X13887Y9759D01*
X13817Y9750D01*
X13751Y9723D01*
X13694Y9680D01*
X13651Y9623D01*
X13624Y9557D01*
X13615Y9487D01*
X13453Y9416D01*
X11077D01*
X11001Y9401D01*
X10936Y9358D01*
X10646Y9068D01*
X10603Y9003D01*
X10588Y8927D01*
Y8167D01*
X10512Y8098D01*
X10418Y8048D01*
X10381Y8053D01*
X10310Y8044D01*
X10245Y8017D01*
X10188Y7973D01*
X10173Y7954D01*
X9847D01*
Y8296D01*
X8327D01*
Y7465D01*
Y6678D01*
X9847D01*
Y6820D01*
X10052D01*
X10054Y6243D01*
X10019Y6208D01*
X9847D01*
Y6524D01*
X8327D01*
Y5694D01*
X9847D01*
Y5810D01*
X10479D01*
X10555Y5825D01*
X10620Y5868D01*
X10928Y6176D01*
X10971Y6241D01*
X10986Y6317D01*
Y8845D01*
X11159Y9018D01*
X11776D01*
X11777Y9018D01*
X11848Y8848D01*
X11803Y8794D01*
X11737Y8670D01*
X11697Y8536D01*
X11683Y8397D01*
X11697Y8258D01*
X11737Y8124D01*
X11803Y8000D01*
X11892Y7892D01*
X12000Y7803D01*
X12124Y7737D01*
X12258Y7697D01*
X12397Y7683D01*
X12536Y7697D01*
X12670Y7737D01*
X12794Y7803D01*
X12902Y7892D01*
X12991Y8000D01*
X13057Y8124D01*
X13097Y8258D01*
X13111Y8397D01*
X13097Y8536D01*
X13057Y8670D01*
X12991Y8794D01*
X12946Y8848D01*
X13017Y9018D01*
X13018Y9018D01*
X13655D01*
X13685Y8998D01*
X13761Y8983D01*
X14013D01*
X14045Y8990D01*
X14153Y8892D01*
X14172Y8860D01*
X14173Y8848D01*
X14165Y8787D01*
X14174Y8717D01*
X14201Y8651D01*
X14244Y8594D01*
X14301Y8551D01*
X14367Y8524D01*
X14437Y8515D01*
X14474Y8520D01*
X15372Y7622D01*
X15425Y7586D01*
X15487Y7574D01*
X15540D01*
X15660Y7404D01*
X15655Y7388D01*
X15639Y7372D01*
X15557Y7317D01*
X15502Y7235D01*
X15492Y7187D01*
X15737D01*
Y7087D01*
X15475D01*
X15395Y6959D01*
X15387Y6953D01*
X15312Y6958D01*
X15276Y6968D01*
X15248Y7033D01*
X15226Y7146D01*
X15253Y7181D01*
X15280Y7247D01*
X15289Y7317D01*
X15280Y7387D01*
X15253Y7453D01*
X15210Y7510D01*
X15153Y7553D01*
X15087Y7580D01*
X15069Y7583D01*
X14376Y8276D01*
X14303Y8324D01*
X14217Y8341D01*
X14058D01*
X14043Y8353D01*
X13977Y8380D01*
X13907Y8389D01*
X13837Y8380D01*
X13771Y8353D01*
X13714Y8310D01*
X13671Y8253D01*
X13644Y8187D01*
X13635Y8117D01*
X13644Y8047D01*
X13671Y7981D01*
X13714Y7924D01*
X13771Y7881D01*
X13837Y7854D01*
X13907Y7845D01*
X13977Y7854D01*
X14043Y7881D01*
X14058Y7893D01*
X14124D01*
X14751Y7265D01*
X14754Y7247D01*
X14781Y7181D01*
X14824Y7124D01*
X14847Y7107D01*
X14818Y6964D01*
X14803Y6937D01*
X11237D01*
Y5387D01*
Y5237D01*
X10058D01*
X10062Y4147D01*
X10027Y4112D01*
X9912D01*
X6153Y4129D01*
X6141Y4179D01*
X6230Y4226D01*
X6329Y4308D01*
X6411Y4407D01*
X6471Y4520D01*
X6508Y4643D01*
X6516Y4720D01*
X5473D01*
X4430D01*
X4437Y4643D01*
X4475Y4520D01*
X4535Y4407D01*
X4616Y4308D01*
X4716Y4226D01*
X4794Y4185D01*
X4781Y4135D01*
X4287Y4137D01*
Y10987D01*
X10037D01*
X10040Y10187D01*
D02*
G37*
%LPC*%
G36*
X8430Y5602D02*
X8243D01*
Y4998D01*
X9079D01*
X9071Y5075D01*
X9034Y5198D01*
X8974Y5311D01*
X8892Y5410D01*
X8793Y5492D01*
X8680Y5552D01*
X8557Y5589D01*
X8430Y5602D01*
D02*
G37*
G36*
X8143D02*
X7957D01*
X7829Y5589D01*
X7707Y5552D01*
X7594Y5492D01*
X7494Y5410D01*
X7413Y5311D01*
X7353Y5198D01*
X7315Y5075D01*
X7308Y4998D01*
X8143D01*
Y5602D01*
D02*
G37*
G36*
X9037Y8815D02*
X8347D01*
Y8470D01*
X9037D01*
Y8815D01*
D02*
G37*
G36*
X8193Y10026D02*
D01*
Y9976D01*
X7308D01*
X7315Y9899D01*
X7353Y9776D01*
X7413Y9663D01*
X7494Y9564D01*
X7594Y9482D01*
X7707Y9422D01*
X7717Y9419D01*
X7710Y9369D01*
X4937D01*
X4906Y9362D01*
X4879Y9345D01*
X4862Y9318D01*
X4855Y9287D01*
Y9237D01*
Y5787D01*
X4862Y5756D01*
X4879Y5729D01*
X4906Y5712D01*
X4937Y5705D01*
X8187D01*
X8218Y5712D01*
X8245Y5729D01*
X8262Y5756D01*
X8269Y5787D01*
Y9287D01*
X8262Y9318D01*
X8260Y9322D01*
X8287Y9372D01*
X8430D01*
X8557Y9385D01*
X8680Y9422D01*
X8793Y9482D01*
X8892Y9564D01*
X8974Y9663D01*
X9034Y9776D01*
X9071Y9899D01*
X9079Y9976D01*
X8193D01*
Y10026D01*
D02*
G37*
G36*
X5423Y5425D02*
X5079D01*
X4951Y5412D01*
X4829Y5375D01*
X4716Y5315D01*
X4616Y5233D01*
X4535Y5134D01*
X4475Y5021D01*
X4437Y4898D01*
X4430Y4820D01*
X5423D01*
Y5425D01*
D02*
G37*
G36*
X9079Y4898D02*
X8243D01*
Y4293D01*
X8430D01*
X8557Y4306D01*
X8680Y4343D01*
X8793Y4404D01*
X8892Y4485D01*
X8974Y4584D01*
X9034Y4697D01*
X9071Y4820D01*
X9079Y4898D01*
D02*
G37*
G36*
X8143D02*
X7308D01*
X7315Y4820D01*
X7353Y4697D01*
X7413Y4584D01*
X7494Y4485D01*
X7594Y4404D01*
X7707Y4343D01*
X7829Y4306D01*
X7957Y4293D01*
X8143D01*
Y4898D01*
D02*
G37*
G36*
X5867Y5425D02*
X5523D01*
Y4820D01*
X6516D01*
X6508Y4898D01*
X6471Y5021D01*
X6411Y5134D01*
X6329Y5233D01*
X6230Y5315D01*
X6117Y5375D01*
X5994Y5412D01*
X5867Y5425D01*
D02*
G37*
G36*
X9827Y8815D02*
X9137D01*
Y8470D01*
X9827D01*
Y8815D01*
D02*
G37*
G36*
X8430Y10681D02*
X8243D01*
Y10076D01*
X9079D01*
X9071Y10154D01*
X9034Y10277D01*
X8974Y10390D01*
X8892Y10489D01*
X8793Y10570D01*
X8680Y10631D01*
X8557Y10668D01*
X8430Y10681D01*
D02*
G37*
G36*
X8143D02*
X7957D01*
X7829Y10668D01*
X7707Y10631D01*
X7594Y10570D01*
X7494Y10489D01*
X7413Y10390D01*
X7353Y10277D01*
X7315Y10154D01*
X7308Y10076D01*
X8143D01*
Y10681D01*
D02*
G37*
G36*
X5867Y10858D02*
X5523D01*
Y10254D01*
X6516D01*
X6508Y10331D01*
X6471Y10454D01*
X6411Y10567D01*
X6329Y10666D01*
X6230Y10748D01*
X6117Y10808D01*
X5994Y10845D01*
X5867Y10858D01*
D02*
G37*
G36*
X5423D02*
X5079D01*
X4951Y10845D01*
X4829Y10808D01*
X4716Y10748D01*
X4616Y10666D01*
X4535Y10567D01*
X4475Y10454D01*
X4437Y10331D01*
X4430Y10254D01*
X5423D01*
Y10858D01*
D02*
G37*
G36*
X9827Y9260D02*
X9137D01*
Y8915D01*
X9827D01*
Y9260D01*
D02*
G37*
G36*
X9037D02*
X8347D01*
Y8915D01*
X9037D01*
Y9260D01*
D02*
G37*
G36*
X6516Y10154D02*
X5523D01*
Y9549D01*
X5867D01*
X5994Y9562D01*
X6117Y9599D01*
X6230Y9659D01*
X6329Y9741D01*
X6411Y9840D01*
X6471Y9953D01*
X6508Y10076D01*
X6516Y10154D01*
D02*
G37*
G36*
X5423D02*
X4430D01*
X4437Y10076D01*
X4475Y9953D01*
X4535Y9840D01*
X4616Y9741D01*
X4716Y9659D01*
X4829Y9599D01*
X4951Y9562D01*
X5079Y9549D01*
X5423D01*
Y10154D01*
D02*
G37*
%LPD*%
D12*
X25233Y8386D02*
Y8536D01*
Y8386D02*
X26083Y7536D01*
X26023Y8296D02*
X26393D01*
X23223Y11096D02*
X26023Y8296D01*
X23223Y11096D02*
Y11286D01*
X23184Y11324D02*
X23223Y11286D01*
X22807Y11324D02*
X23184D01*
X26083Y7536D02*
X28093D01*
X28693Y8136D01*
X8997Y7781D02*
X10381D01*
X8997Y6993D02*
X10381D01*
D13*
X22807Y11580D02*
X22847Y11540D01*
X23190D01*
X23296Y11646D01*
X23705D01*
X26565Y8786D01*
X22807Y11836D02*
X22847Y11796D01*
X23191D01*
X23221Y11826D01*
X23779D01*
X26551Y9054D01*
X26565Y8786D02*
X27083D01*
X27483Y9186D01*
X27733D01*
X26814Y9054D02*
X26833Y9036D01*
X26551Y9054D02*
X26814D01*
X28233Y9086D02*
X28693D01*
X27733Y8586D02*
X28233Y9086D01*
X28693Y8782D02*
X28908Y8997D01*
Y9175D01*
X28782Y9301D02*
X28908Y9175D01*
X28193Y9301D02*
X28782D01*
X28078Y9186D02*
X28193Y9301D01*
X27733Y9186D02*
X28078D01*
X29543Y8556D02*
Y9686D01*
X29353Y8366D02*
X29543Y8556D01*
X28583Y8366D02*
X29353D01*
X28063Y7846D02*
X28583Y8366D01*
X27193Y7846D02*
X28063D01*
X27013Y8026D02*
X27193Y7846D01*
X27013Y8026D02*
Y8156D01*
X28693Y8716D02*
Y8782D01*
Y9686D02*
X29543D01*
X14887Y9217D02*
X15038Y9066D01*
X15487Y7737D02*
X15737D01*
X14437Y8787D02*
X15487Y7737D01*
X15038Y9066D02*
X17337D01*
X15889Y7885D02*
X16086Y7689D01*
X15887Y7887D02*
X15889Y7885D01*
X16086Y7689D02*
X17297D01*
X15737Y7737D02*
X15887Y7887D01*
X15889Y7885D02*
X17297D01*
X13914Y9460D02*
X15917D01*
X17297D02*
X17337D01*
X15917D02*
X17297D01*
Y9263D02*
X17337D01*
X15917Y9460D02*
X16114Y9263D01*
X17297D01*
X13887Y9487D02*
X13914Y9460D01*
X15737Y9987D02*
X16067Y9657D01*
X17337D01*
X15737Y7137D02*
X16087Y7487D01*
X17332D01*
X17337Y7492D01*
X15702Y8082D02*
X17337D01*
D14*
X14217Y8117D02*
X15017Y7317D01*
X13907Y8117D02*
X14217D01*
X8093Y10026D02*
X8133Y9987D01*
X8093Y4948D02*
X8433Y5287D01*
D15*
X17267Y7492D02*
D03*
Y7689D02*
D03*
Y7885D02*
D03*
Y8082D02*
D03*
Y8279D02*
D03*
Y8870D02*
D03*
Y9066D02*
D03*
Y9263D02*
D03*
Y9460D02*
D03*
Y9657D02*
D03*
D16*
X28883Y10446D02*
D03*
Y7276D02*
D03*
D17*
X28645Y10564D02*
D03*
X28645Y7162D02*
D03*
D18*
X30633Y10564D02*
D03*
Y7162D02*
D03*
D19*
X21963Y5866D02*
D03*
Y4866D02*
D03*
X5397Y11927D02*
D03*
Y12927D02*
D03*
D20*
X21291Y13361D02*
D03*
Y10310D02*
D03*
D21*
X22787Y10369D02*
D03*
Y13302D02*
D03*
D22*
X25083Y7486D02*
D03*
X25233Y8536D02*
D03*
X27683Y10236D02*
D03*
X27483Y7186D02*
D03*
X25923Y8746D02*
D03*
X26393Y8296D02*
D03*
X27013Y8156D02*
D03*
D23*
X27733Y9186D02*
D03*
X26833Y9036D02*
D03*
X27733Y8586D02*
D03*
D24*
X28693Y8136D02*
D03*
Y9086D02*
D03*
Y8716D02*
D03*
Y9686D02*
D03*
D25*
X8193Y10026D02*
D03*
Y4948D02*
D03*
D26*
X5473Y4770D02*
D03*
Y10204D02*
D03*
D27*
X15017Y7317D02*
D03*
X13907Y8117D02*
D03*
X15007Y9097D02*
D03*
X13887Y9487D02*
D03*
X15737Y9987D02*
D03*
Y7137D02*
D03*
X14437Y8787D02*
D03*
X15632Y8082D02*
D03*
X10381Y7781D02*
D03*
Y6993D02*
D03*
D28*
X22807Y12348D02*
D03*
Y12092D02*
D03*
Y11324D02*
D03*
Y11580D02*
D03*
Y11836D02*
D03*
D29*
X9087Y6109D02*
D03*
Y7093D02*
D03*
Y7881D02*
D03*
Y8865D02*
D03*
D30*
X17267Y9893D02*
D03*
Y7255D02*
D03*
D31*
X14048Y9217D02*
X14887D01*
X14013Y9182D02*
X14048Y9217D01*
X13761Y9182D02*
X14013D01*
X13726Y9217D02*
X13761Y9182D01*
X11077Y9217D02*
X13726D01*
X10787Y8927D02*
X11077Y9217D01*
X15007Y8707D02*
Y9097D01*
Y8707D02*
X15632Y8082D01*
X10787Y6317D02*
Y8927D01*
X10479Y6009D02*
X10787Y6317D01*
X8997Y6009D02*
X10479D01*
D32*
X7926Y4670D02*
X8103Y4848D01*
M02*
