G04 Layer_Color=16711935*
%FSLAX24Y24*%
%MOIN*%
G70*
G01*
G75*
%ADD36R,0.2029X0.0139*%
%ADD37R,0.0060X0.0060*%
%ADD38O,0.0493X0.0660*%
%ADD39O,0.0966X0.0532*%
%ADD40C,0.0060*%
%ADD41O,0.1084X0.0572*%
%ADD42C,0.0910*%
%ADD43C,0.0050*%
%ADD44O,0.0837X0.0621*%
%ADD45O,0.0759X0.0503*%
%ADD46C,0.0280*%
%ADD47C,0.0230*%
%ADD48O,0.1950X0.1162*%
%ADD49O,0.1635X0.1162*%
%ADD50C,0.0360*%
%ADD51R,0.0562X0.0220*%
%ADD52R,0.2029X0.0217*%
%ADD53R,0.1340X0.0651*%
D36*
X17267Y9657D02*
D03*
Y9460D02*
D03*
Y9263D02*
D03*
Y9066D02*
D03*
Y8870D02*
D03*
Y8279D02*
D03*
Y8082D02*
D03*
Y7885D02*
D03*
Y7689D02*
D03*
Y7492D02*
D03*
D37*
X25743Y5496D02*
D03*
Y12206D02*
D03*
D38*
X28883Y7276D02*
D03*
Y10446D02*
D03*
D39*
X28645Y7162D02*
D03*
X28645Y10564D02*
D03*
D40*
X29433Y7446D02*
D03*
X29407Y10280D02*
D03*
X8797Y12547D02*
D03*
X12397Y8397D02*
D03*
D41*
X30633Y7162D02*
D03*
Y10564D02*
D03*
D42*
X21963Y4866D02*
D03*
Y5866D02*
D03*
X5397Y11927D02*
D03*
Y12927D02*
D03*
D43*
X22374Y12820D02*
D03*
Y10852D02*
D03*
D44*
X22787Y13302D02*
D03*
Y10369D02*
D03*
D45*
X21291Y10310D02*
D03*
Y13361D02*
D03*
D46*
X27013Y8156D02*
D03*
X26393Y8296D02*
D03*
X25923Y8746D02*
D03*
X27483Y7186D02*
D03*
X27683Y10236D02*
D03*
X25233Y8536D02*
D03*
X25083Y7486D02*
D03*
D47*
X27733Y8586D02*
D03*
X26833Y9036D02*
D03*
X27733Y9186D02*
D03*
D48*
X5473Y10204D02*
D03*
Y4770D02*
D03*
D49*
X8193Y4948D02*
D03*
Y10026D02*
D03*
D50*
X10381Y6993D02*
D03*
Y7781D02*
D03*
X15632Y8082D02*
D03*
X14437Y8787D02*
D03*
X15737Y7137D02*
D03*
Y9987D02*
D03*
X13887Y9487D02*
D03*
X15007Y9097D02*
D03*
X13907Y8117D02*
D03*
X15017Y7317D02*
D03*
D51*
X22807Y11836D02*
D03*
Y11580D02*
D03*
Y11324D02*
D03*
Y12092D02*
D03*
Y12348D02*
D03*
D52*
X17267Y7255D02*
D03*
Y9893D02*
D03*
D53*
X9087Y8865D02*
D03*
Y7881D02*
D03*
Y7093D02*
D03*
Y6109D02*
D03*
M02*
