G04 Layer_Color=8388736*
%FSLAX24Y24*%
%MOIN*%
G70*
G01*
G75*
%ADD34R,0.0454X0.0206*%
%ADD35R,0.0415X0.0206*%
%ADD36R,0.2069X0.0179*%
%ADD37R,0.0100X0.0100*%
%ADD38O,0.0533X0.0700*%
%ADD39O,0.1006X0.0572*%
%ADD40O,0.1124X0.0612*%
%ADD41C,0.0100*%
%ADD42C,0.0950*%
%ADD43O,0.0809X0.0553*%
%ADD44O,0.0887X0.0671*%
%ADD45C,0.0320*%
%ADD46C,0.0270*%
%ADD47C,0.0250*%
%ADD48O,0.1990X0.1202*%
%ADD49O,0.1675X0.1202*%
%ADD50C,0.0400*%
G36*
X28793Y8206D02*
X28773D01*
Y8246D01*
X28793D01*
Y8206D01*
D02*
G37*
G36*
Y8626D02*
Y8606D01*
X28763D01*
Y8656D01*
X28793D01*
Y8626D01*
D02*
G37*
G36*
X28963Y7606D02*
X28793D01*
Y7636D01*
X28963D01*
Y7606D01*
D02*
G37*
G36*
X28793Y8026D02*
X28773D01*
Y8066D01*
X28793D01*
Y8026D01*
D02*
G37*
G36*
Y8786D02*
X28763D01*
Y8846D01*
X28793D01*
Y8786D01*
D02*
G37*
G36*
Y9566D02*
X28763D01*
Y9616D01*
X28793D01*
Y9566D01*
D02*
G37*
G36*
Y9756D02*
X28763D01*
Y9806D01*
X28793D01*
Y9756D01*
D02*
G37*
G36*
Y8966D02*
X28763D01*
Y9016D01*
X28793D01*
Y8966D01*
D02*
G37*
G36*
Y9156D02*
X28763D01*
Y9216D01*
X28793D01*
Y9156D01*
D02*
G37*
G36*
X18317Y7387D02*
X16227D01*
Y7597D01*
Y9767D01*
X18317Y9782D01*
Y7387D01*
D02*
G37*
D34*
X28370Y7830D02*
D03*
Y8027D02*
D03*
Y8223D02*
D03*
Y8420D02*
D03*
Y8617D02*
D03*
Y8814D02*
D03*
Y9011D02*
D03*
Y9208D02*
D03*
Y9404D02*
D03*
Y9601D02*
D03*
Y9798D02*
D03*
Y9995D02*
D03*
D35*
X29000Y9897D02*
D03*
Y9700D02*
D03*
Y9503D02*
D03*
Y9306D02*
D03*
Y9109D02*
D03*
Y8912D02*
D03*
Y8716D02*
D03*
Y8322D02*
D03*
Y8519D02*
D03*
Y8125D02*
D03*
Y7928D02*
D03*
Y7731D02*
D03*
D36*
X17267Y9657D02*
D03*
Y9460D02*
D03*
Y9263D02*
D03*
Y9066D02*
D03*
Y8870D02*
D03*
Y8673D02*
D03*
Y8476D02*
D03*
Y8279D02*
D03*
Y8082D02*
D03*
Y7885D02*
D03*
Y7689D02*
D03*
Y7492D02*
D03*
D37*
X25743Y12206D02*
D03*
Y5496D02*
D03*
D38*
X28883Y10446D02*
D03*
Y7276D02*
D03*
D39*
X28645Y10564D02*
D03*
X28645Y7162D02*
D03*
D40*
X30633Y10564D02*
D03*
Y7162D02*
D03*
D41*
X29407Y10280D02*
D03*
X29433Y7446D02*
D03*
X22374Y10852D02*
D03*
Y12820D02*
D03*
X8797Y12547D02*
D03*
X12397Y8397D02*
D03*
D42*
X21963Y5866D02*
D03*
Y4866D02*
D03*
X5397Y12927D02*
D03*
Y11927D02*
D03*
D43*
X21291Y13361D02*
D03*
Y10310D02*
D03*
D44*
X22787Y10369D02*
D03*
Y13302D02*
D03*
D45*
X25233Y8536D02*
D03*
X27683Y10236D02*
D03*
X27483Y7186D02*
D03*
X25233Y9536D02*
D03*
X24383Y10386D02*
D03*
X25923Y8746D02*
D03*
X26393Y8296D02*
D03*
X23563Y11236D02*
D03*
X27013Y8156D02*
D03*
D46*
X27733Y9186D02*
D03*
X26833Y9036D02*
D03*
X27733Y8586D02*
D03*
D47*
X28693Y9686D02*
D03*
Y8136D02*
D03*
Y9086D02*
D03*
Y8716D02*
D03*
D48*
X5473Y10204D02*
D03*
Y4770D02*
D03*
D49*
X8193Y4948D02*
D03*
Y10026D02*
D03*
D50*
X10381Y6993D02*
D03*
Y7781D02*
D03*
X15632Y8082D02*
D03*
X14437Y8787D02*
D03*
X15737Y7137D02*
D03*
Y9987D02*
D03*
X13887Y9487D02*
D03*
X15007Y9097D02*
D03*
X13907Y8117D02*
D03*
X15017Y7317D02*
D03*
M02*
