M48
;Layer_Color=9474304
;FILE_FORMAT=2:5
INCH,LZ
;TYPE=PLATED
T5F00S00C0.01968
T6F00S00C0.02165
T7F00S00C0.02362
T8F00S00C0.02756
T9F00S00C0.03346
;TYPE=NON_PLATED
%
G90
G05
T05
G00X0294071Y0102116
M15
G01Y0103494
M16
T06
G00X0211634Y0103102
M15
G01X0214193
M16
G00X0211634Y0133614
M15
G01X0214193
M16
T07
G00X0289012Y0071624
M15
G01X0283894
M16
G00X0289012Y0105639
M15
G01X0283894
M16
T08
G00X0050791Y0047705
M15
G01X0058665
M16
G00X0079571Y0049476
M15
G01X0084295
M16
G00X0079571Y0100264
M15
G01X0084295
M16
G00X0050791Y0102035
M15
G01X0058665
M16
G00X0288827Y0103536
M15
G01Y010538
M16
G00X0308894Y0105639
M15
G01X0303776
M16
G00X0308894Y0071624
M15
G01X0303776
M16
G00X0288827Y0071836
M15
G01Y007368
M16
T09
G00X0226791Y0103693
M15
G01X0228957
M16
G00X0226791Y0133024
M15
G01X0228957
M16
M17
M30
