M48
;Layer_Color=9474304
;FILE_FORMAT=2:5
INCH,LZ
;TYPE=PLATED
T4F00S00C0.01968
T5F00S00C0.02165
T6F00S00C0.02362
T7F00S00C0.02756
T8F00S00C0.03346
;TYPE=NON_PLATED
%
G90
G05
T04
G00X0279244Y0303257
M15
G01Y0304635
M16
T05
G00X0196807Y0304244
M15
G01X0199366
M16
G00X0196807Y0334756
M15
G01X0199366
M16
T06
G00X0274185Y0272765
M15
G01X0269067
M16
G00X0274185Y0306781
M15
G01X0269067
M16
T07
G00X0274Y0272978
M15
G01Y0274822
M16
G00X0294067Y0272765
M15
G01X0288949
M16
G00X0294067Y0306781
M15
G01X0288949
M16
G00X0274Y0304678
M15
G01Y0306522
M16
T08
G00X0211965Y0304835
M15
G01X021413
M16
G00X0211965Y0334165
M15
G01X021413
M16
M17
M30
