M48
;Layer_Color=9474304
;FILE_FORMAT=2:5
INCH,LZ
;TYPE=PLATED
T1F00S00C0.00300
T2F00S00C0.00500
T3F00S00C0.01000
T9F00S00C0.05118
;TYPE=NON_PLATED
T10F00S00C0.02559
T11F00S00C0.03150
T12F00S00C0.11811
%
T01
X02721Y02825
Y02883
Y0292
Y0298
T02
X02535Y02915
X02625Y0293
Y0287
T03
X02375Y02865
X02444Y02886
X02491Y02841
X02553Y02827
X026Y0273
X0262Y03035
X02375Y02965
X0229Y0305
X02208Y03135
T09
X02048Y02498
Y02598
T10
X02795Y02756
T11
X0208913Y0309658
Y0329343
T12
X02426Y02561
Y03232
M30
